<svg id="Layer_2" data-name="Layer 2" xmlns="http://www.w3.org/2000/svg" viewBox="0 0 500 500"><defs><style>.cls-1{fill:#999;}.cls-2{fill:#39486d;}.cls-3{fill:#1f2d47;}.cls-4{fill:#b2b2b2;}.cls-5{fill:#7f8ead;}</style></defs><title>Artboard 3</title><path class="cls-1" d="M250,37.5C132.64,37.5,37.5,132.64,37.5,250S132.64,462.5,250,462.5,462.5,367.36,462.5,250,367.36,37.5,250,37.5Zm0,400C146.45,437.5,62.5,353.55,62.5,250S146.45,62.5,250,62.5,437.5,146.45,437.5,250,353.55,437.5,250,437.5Z"/><path class="cls-2" d="M250,463.5C132.28,463.5,36.5,367.72,36.5,250S132.28,36.5,250,36.5,463.5,132.28,463.5,250,367.72,463.5,250,463.5Zm0-400C147.16,63.5,63.5,147.16,63.5,250S147.16,436.5,250,436.5,436.5,352.84,436.5,250,352.84,63.5,250,63.5Z"/><path d="M250,37.5c117.36,0,212.5,95.14,212.5,212.5S367.36,462.5,250,462.5,37.5,367.36,37.5,250,132.64,37.5,250,37.5m0,400c103.55,0,187.5-83.95,187.5-187.5S353.55,62.5,250,62.5,62.5,146.45,62.5,250,146.45,437.5,250,437.5m0-402a214.56,214.56,0,0,0-83.49,412.14,214.55,214.55,0,0,0,167-395.28A213,213,0,0,0,250,35.5Zm0,400C147.71,435.5,64.5,352.29,64.5,250S147.71,64.5,250,64.5,435.5,147.71,435.5,250,352.29,435.5,250,435.5Z"/><path class="cls-3" d="M250,37.5C132.64,37.5,37.5,132.64,37.5,250c0,2.34,0,4.68.12,7C41.31,142.88,135,51.5,250,51.5S458.69,142.88,462.38,257c.08-2.32.12-4.66.12-7C462.5,132.64,367.36,37.5,250,37.5Z"/><path class="cls-4" d="M250,37.5C132.64,37.5,37.5,132.64,37.5,250S132.64,462.5,250,462.5,462.5,367.36,462.5,250,367.36,37.5,250,37.5ZM250,457C135.68,457,43,364.32,43,250S135.68,43,250,43s207,92.68,207,207S364.32,457,250,457Z"/><path class="cls-5" d="M437.42,255.5c-2.91,101-85.71,182-187.42,182s-184.51-81-187.42-182c0,1.83-.08,3.66-.08,5.5,0,103.55,83.95,187.5,187.5,187.5S437.5,364.55,437.5,261C437.5,259.16,437.47,257.33,437.42,255.5Z"/></svg>