<svg id="Layer_2" data-name="Layer 2" xmlns="http://www.w3.org/2000/svg" viewBox="0 0 500 500"><defs><style>.cls-1{fill:#999;}.cls-2{fill:#ccc;}.cls-3{fill:#666;}</style></defs><title>Artboard 1</title><path class="cls-1" d="M250,463.5C132.28,463.5,36.5,367.72,36.5,250S132.28,36.5,250,36.5,463.5,132.28,463.5,250,367.72,463.5,250,463.5Zm0-400C147.16,63.5,63.5,147.16,63.5,250S147.16,436.5,250,436.5,436.5,352.84,436.5,250,352.84,63.5,250,63.5Z"/><path d="M250,37.5c117.36,0,212.5,95.14,212.5,212.5S367.36,462.5,250,462.5,37.5,367.36,37.5,250,132.64,37.5,250,37.5m0,400c103.55,0,187.5-83.95,187.5-187.5S353.55,62.5,250,62.5,62.5,146.45,62.5,250,146.45,437.5,250,437.5m0-402a214.56,214.56,0,0,0-83.49,412.14,214.55,214.55,0,0,0,167-395.28A213,213,0,0,0,250,35.5Zm0,400C147.71,435.5,64.5,352.29,64.5,250S147.71,64.5,250,64.5,435.5,147.71,435.5,250,352.29,435.5,250,435.5Z"/><path class="cls-1" d="M250,37.5C132.64,37.5,37.5,132.64,37.5,250S132.64,462.5,250,462.5,462.5,367.36,462.5,250,367.36,37.5,250,37.5Zm0,400C146.45,437.5,62.5,353.55,62.5,250S146.45,62.5,250,62.5,437.5,146.45,437.5,250,353.55,437.5,250,437.5Z"/><path class="cls-2" d="M250,37.5C132.64,37.5,37.5,132.64,37.5,250c0,1,0,2,0,3C39.12,137,133.64,43.5,250,43.5S460.88,137,462.48,253c0-1,0-2,0-3C462.5,132.64,367.36,37.5,250,37.5Z"/><path class="cls-3" d="M462.47,246.5c-1.87,115.75-96.28,209-212.47,209S39.4,362.25,37.53,246.5c0,1.16,0,2.33,0,3.5,0,117.36,95.14,212.5,212.5,212.5S462.5,367.36,462.5,250C462.5,248.83,462.49,247.66,462.47,246.5Z"/></svg>