<svg id="Layer_2" data-name="Layer 2" xmlns="http://www.w3.org/2000/svg" viewBox="0 0 500 500"><defs><style>.cls-1,.cls-5{fill:#999;}.cls-2{fill:#666;}.cls-3{fill:#4d4d4d;}.cls-4{fill:#333;}.cls-5{stroke:gray;stroke-miterlimit:10;}.cls-6{fill:#231f20;}</style></defs><title>Artboard 2</title><path class="cls-1" d="M250,37.5C132.64,37.5,37.5,132.64,37.5,250S132.64,462.5,250,462.5,462.5,367.36,462.5,250,367.36,37.5,250,37.5Zm0,400C146.45,437.5,62.5,353.55,62.5,250S146.45,62.5,250,62.5,437.5,146.45,437.5,250,353.55,437.5,250,437.5Z"/><path class="cls-2" d="M250,41C134.57,41,41,134.57,41,250s93.57,209,209,209,209-93.57,209-209S365.43,41,250,41Zm0,400.79C144.08,441.79,58.21,355.92,58.21,250S144.08,58.21,250,58.21,441.79,144.08,441.79,250,355.92,441.79,250,441.79Z"/><path class="cls-3" d="M250,41C134.57,41,41,134.57,41,250c0,.77,0,1.54,0,2.3C42.46,138.11,135.47,46,250,46s207.54,92.11,209,206.3c0-.76,0-1.53,0-2.3C459,134.57,365.43,41,250,41Z"/><path class="cls-4" d="M441.77,252.52C440.43,357.28,355.08,441.79,250,441.79S59.57,357.28,58.23,252.52c0,.83,0,1.65,0,2.48,0,105.92,85.87,191.79,191.79,191.79S441.79,360.92,441.79,255C441.79,254.17,441.78,253.35,441.77,252.52Z"/><rect class="cls-5" x="35" y="236" width="32" height="9" rx="4.5"/><rect class="cls-5" x="35" y="226.5" width="32" height="9" rx="4.5"/><rect class="cls-5" x="35" y="264.5" width="32" height="9" rx="4.5"/><rect class="cls-5" x="35" y="255" width="32" height="9" rx="4.5"/><rect class="cls-5" x="35" y="245.5" width="32" height="9" rx="4.5"/><rect class="cls-5" x="433" y="236" width="32" height="9" rx="4.5"/><rect class="cls-5" x="433" y="226.5" width="32" height="9" rx="4.5"/><rect class="cls-5" x="433" y="264.5" width="32" height="9" rx="4.5"/><rect class="cls-5" x="433" y="255" width="32" height="9" rx="4.5"/><rect class="cls-5" x="433" y="245.5" width="32" height="9" rx="4.5"/><path class="cls-6" d="M250,464.5A214.49,214.49,0,0,1,98.33,98.33,214.49,214.49,0,1,1,401.67,401.67,213.07,213.07,0,0,1,250,464.5Zm0-400C147.71,64.5,64.5,147.71,64.5,250S147.71,435.5,250,435.5,435.5,352.29,435.5,250,352.29,64.5,250,64.5Z"/><path class="cls-6" d="M250,464.5A214.49,214.49,0,0,1,98.33,98.33,214.49,214.49,0,1,1,401.67,401.67,213.07,213.07,0,0,1,250,464.5Zm0-424A208.8,208.8,0,1,0,331.55,57,208.29,208.29,0,0,0,250,40.5Zm0,400C145,440.5,59.5,355,59.5,250S145,59.5,250,59.5,440.5,145,440.5,250,355,440.5,250,440.5Zm0-376C147.71,64.5,64.5,147.71,64.5,250S147.71,435.5,250,435.5,435.5,352.29,435.5,250,352.29,64.5,250,64.5Z"/><path class="cls-6" d="M250,461C133.65,461,39,366.35,39,250S133.65,39,250,39s211,94.65,211,211S366.35,461,250,461Zm0-400.79C145.35,60.21,60.21,145.35,60.21,250S145.35,439.79,250,439.79,439.79,354.65,439.79,250,354.65,60.21,250,60.21Z"/><path class="cls-6" d="M250,461C133.65,461,39,366.35,39,250S133.65,39,250,39s211,94.65,211,211S366.35,461,250,461Zm0-417a206.05,206.05,0,0,0-80.18,395.81A206.05,206.05,0,0,0,330.18,60.19,204.7,204.7,0,0,0,250,44Zm0,400.79C142.59,444.79,55.21,357.41,55.21,250S142.59,55.21,250,55.21,444.79,142.59,444.79,250,357.41,444.79,250,444.79Zm0-384.58C145.35,60.21,60.21,145.35,60.21,250S145.35,439.79,250,439.79,439.79,354.65,439.79,250,354.65,60.21,250,60.21Z"/><path class="cls-6" d="M457,252.33C455.56,139.66,362.71,48,250,48S44.44,139.66,43,252.33l-4,0c0-.78,0-1.56,0-2.35A211,211,0,0,1,399.2,100.8,209.63,209.63,0,0,1,461,250c0,.79,0,1.58,0,2.35Z"/><path class="cls-6" d="M457,252.33C455.56,139.66,362.71,48,250,48S44.44,139.66,43,252.33l-4,0c0-.78,0-1.56,0-2.35A211,211,0,0,1,399.2,100.8,209.63,209.63,0,0,1,461,250c0,.79,0,1.57,0,2.35Z"/><path class="cls-6" d="M250,448.79C143.14,448.79,56.21,361.86,56.21,255c0-.82,0-1.64,0-2.46l4,0c1.32,103.28,86.45,187.3,189.77,187.3s188.45-84,189.77-187.3h4c0,.84,0,1.67,0,2.51C443.79,361.86,356.86,448.79,250,448.79Z"/><path class="cls-6" d="M250,448.79C143.14,448.79,56.21,361.86,56.21,255c0-.84,0-1.67,0-2.51h4c1.32,103.28,86.45,187.3,189.77,187.3s188.45-84,189.77-187.3h4c0,.84,0,1.67,0,2.51C443.79,361.86,356.86,448.79,250,448.79Z"/><path class="cls-6" d="M39.5,247a6.5,6.5,0,0,1,0-13h23a6.5,6.5,0,0,1,0,13Z"/><path class="cls-6" d="M39.5,237.5a6.5,6.5,0,0,1,0-13h23a6.5,6.5,0,0,1,0,13Z"/><path class="cls-6" d="M39.5,275.5a6.5,6.5,0,0,1,0-13h23a6.5,6.5,0,0,1,0,13Z"/><path class="cls-6" d="M39.5,266a6.5,6.5,0,0,1,0-13h23a6.5,6.5,0,0,1,0,13Z"/><path class="cls-6" d="M39.5,256.5a6.5,6.5,0,0,1,0-13h23a6.5,6.5,0,0,1,0,13Z"/><path class="cls-6" d="M437.5,247a6.5,6.5,0,0,1,0-13h23a6.5,6.5,0,0,1,0,13Z"/><path class="cls-6" d="M437.5,237.5a6.5,6.5,0,0,1,0-13h23a6.5,6.5,0,0,1,0,13Z"/><path class="cls-6" d="M437.5,275.5a6.5,6.5,0,0,1,0-13h23a6.5,6.5,0,0,1,0,13Z"/><path class="cls-6" d="M437.5,266a6.5,6.5,0,0,1,0-13h23a6.5,6.5,0,0,1,0,13Z"/><path class="cls-6" d="M437.5,256.5a6.5,6.5,0,0,1,0-13h23a6.5,6.5,0,0,1,0,13Z"/><path class="cls-1" d="M250,37.5C132.64,37.5,37.5,132.64,37.5,250S132.64,462.5,250,462.5,462.5,367.36,462.5,250,367.36,37.5,250,37.5Zm0,400C146.45,437.5,62.5,353.55,62.5,250S146.45,62.5,250,62.5,437.5,146.45,437.5,250,353.55,437.5,250,437.5Z"/><path class="cls-2" d="M250,41C134.57,41,41,134.57,41,250s93.57,209,209,209,209-93.57,209-209S365.43,41,250,41Zm0,400.79C144.08,441.79,58.21,355.92,58.21,250S144.08,58.21,250,58.21,441.79,144.08,441.79,250,355.92,441.79,250,441.79Z"/><path class="cls-3" d="M250,41C134.57,41,41,134.57,41,250c0,.77,0,1.54,0,2.3C42.46,138.11,135.47,46,250,46s207.54,92.11,209,206.3c0-.76,0-1.53,0-2.3C459,134.57,365.43,41,250,41Z"/><path class="cls-4" d="M441.77,252.52C440.43,357.28,355.08,441.79,250,441.79S59.57,357.28,58.23,252.52c0,.83,0,1.65,0,2.48,0,105.92,85.87,191.79,191.79,191.79S441.79,360.92,441.79,255C441.79,254.17,441.78,253.35,441.77,252.52Z"/><rect class="cls-5" x="35" y="236" width="32" height="9" rx="4.5"/><rect class="cls-5" x="35" y="226.5" width="32" height="9" rx="4.5"/><rect class="cls-5" x="35" y="264.5" width="32" height="9" rx="4.5"/><rect class="cls-5" x="35" y="255" width="32" height="9" rx="4.5"/><rect class="cls-5" x="35" y="245.5" width="32" height="9" rx="4.5"/><rect class="cls-5" x="433" y="236" width="32" height="9" rx="4.5"/><rect class="cls-5" x="433" y="226.5" width="32" height="9" rx="4.5"/><rect class="cls-5" x="433" y="264.5" width="32" height="9" rx="4.5"/><rect class="cls-5" x="433" y="255" width="32" height="9" rx="4.5"/><rect class="cls-5" x="433" y="245.5" width="32" height="9" rx="4.5"/></svg>