<svg id="Layer_2" data-name="Layer 2" xmlns="http://www.w3.org/2000/svg" viewBox="0 0 500 500"><defs><style>.cls-1,.cls-11{fill:#b3b3b3;}.cls-2{fill:#999;}.cls-3{fill:#666;}.cls-4{fill:#ccc;}.cls-5{fill:none;stroke:#6d6d6d;stroke-width:0.5px;}.cls-11,.cls-5{stroke-miterlimit:10;}.cls-6{fill:#878787;}.cls-7{fill:#ff4e00;}.cls-8{fill:#bc2c00;}.cls-9{fill:#ff7443;}.cls-10{fill:#231f20;}.cls-11{stroke:#4d4d4d;}</style></defs><title>Artboard 5</title><path class="cls-1" d="M250,464.5A214.49,214.49,0,0,1,98.33,98.33,214.49,214.49,0,1,1,401.67,401.67,213.07,213.07,0,0,1,250,464.5Zm0-400C147.71,64.5,64.5,147.71,64.5,250S147.71,435.5,250,435.5,435.5,352.29,435.5,250,352.29,64.5,250,64.5Z"/><path class="cls-2" d="M250,452C138.62,452,48,361.38,48,250S138.62,48,250,48s202,90.62,202,202S361.38,452,250,452Zm0-387.5C147.71,64.5,64.5,147.71,64.5,250S147.71,435.5,250,435.5,435.5,352.29,435.5,250,352.29,64.5,250,64.5Z"/><path class="cls-3" d="M250,452A202,202,0,0,1,48.07,255.21l4-.1C54.88,360.47,141.82,443,250,443s195.12-82.53,197.93-187.89l4,.1A202,202,0,0,1,250,452ZM447.93,244.89C445.12,139.53,358.18,57,250,57S54.88,139.53,52.07,244.89l-4-.1a202,202,0,0,1,403.86,0Z"/><path class="cls-4" d="M257.65,447.85C362.71,443.74,445,356.83,445,250S362.71,56.26,257.65,52.15l.16-4a202,202,0,0,1,0,403.7Zm-15.46,4a202,202,0,0,1,0-403.7l.16,4C137.29,56.26,55,143.17,55,250s82.29,193.74,187.35,197.85Z"/><path class="cls-4" d="M250,458.12c-107.74,0-196.35-86.76-201.74-197.51l4-.2C57.72,365.6,144.58,448,250,448s192.28-82.4,197.74-187.59l4,.2C446.35,371.36,357.74,458.12,250,458.12ZM447.74,239.59C442.28,134.4,355.42,52,250,52S57.72,134.4,52.26,239.59l-4-.2C53.65,128.64,142.26,41.88,250,41.88s196.35,86.76,201.74,197.51Z"/><path class="cls-1" d="M250,85.2a3.93,3.93,0,0,1-2.78-1.15L219,55.78a3.94,3.94,0,0,1,0-5.56L247.22,22a3.94,3.94,0,0,1,5.56,0l28.27,28.27a3.94,3.94,0,0,1,0,5.56L252.78,84.05A3.93,3.93,0,0,1,250,85.2Z"/><path class="cls-5" d="M250,85.2a3.93,3.93,0,0,1-2.78-1.15L219,55.78a3.94,3.94,0,0,1,0-5.56L247.22,22a3.94,3.94,0,0,1,5.56,0l28.27,28.27a3.94,3.94,0,0,1,0,5.56L252.78,84.05A3.93,3.93,0,0,1,250,85.2Z"/><path class="cls-6" d="M250,76.2a3.93,3.93,0,0,1-2.78-1.15L228,55.78a3.94,3.94,0,0,1,0-5.56L247.22,31a3.94,3.94,0,0,1,5.56,0l19.27,19.27a3.94,3.94,0,0,1,0,5.56L252.78,75.05A3.93,3.93,0,0,1,250,76.2Z"/><path class="cls-7" d="M250,74.87a3.93,3.93,0,0,1-2.78-1.15L229.28,55.78a3.94,3.94,0,0,1,0-5.56l17.94-17.94a3.94,3.94,0,0,1,5.56,0l17.94,17.94a3.94,3.94,0,0,1,0,5.56L252.78,73.72A3.93,3.93,0,0,1,250,74.87Z"/><path class="cls-2" d="M242.09,76.91l-6.57-6.34c-2.21-2.13-4.41-4.31-6.6-6.49l-.16-.16.16-.17,2.82-2.84.17-.18.18.18C236.41,65.26,240.73,69.6,245,74l.06.07-.06.06Zm0,0L244.85,74v.13c-4.42-4.25-8.77-8.57-13.11-12.89h.35l-2.84,2.82v-.33c2.14,2.15,4.27,4.31,6.4,6.51Z"/><path class="cls-8" d="M233.41,54.41l-2.87-2.77,0,0,0-.05c5.56-5.77,11.22-11.45,16.87-17.13l.18-.18.17.18,2.82,2.84.17.17-.17.16c-2.86,2.84-5.72,5.7-8.6,8.49Zm0,0,8.44-8.66c2.79-2.87,5.59-5.68,8.4-8.5v.33l-2.84-2.82h.35c-5.68,5.66-11.36,11.31-17.12,16.87v-.09Z"/><path class="cls-8" d="M251.41,73.41l-2.87-2.77,0,0,0,0c5.56-5.77,11.22-11.45,16.87-17.13l.18-.18.17.18,2.82,2.84.17.17-.17.16c-2.86,2.84-5.72,5.7-8.6,8.49Zm0,0,8.44-8.66c2.79-2.87,5.59-5.68,8.4-8.5v.33l-2.84-2.82h.35c-5.68,5.66-11.36,11.31-17.12,16.87v-.09Z"/><path class="cls-9" d="M248,71c0-14.62-11.69-16-15.33-16H232l-.11-4h.75C247.83,50.62,248,36.6,248,36h4c0,14.75,14.39,15,15,15v4c-14.83,0-15,15.35-15,16Z"/><path class="cls-2" d="M269.09,46.91l-6.57-6.34c-2.21-2.13-4.41-4.31-6.6-6.49l-.16-.16.16-.17,2.82-2.84.17-.18.18.18C263.41,35.26,267.73,39.6,272,44l.06.07-.06.06Zm0,0L271.85,44v.13c-4.42-4.25-8.77-8.57-13.11-12.89h.35l-2.84,2.82v-.33c2.14,2.15,4.27,4.31,6.4,6.51Z"/><path class="cls-1" d="M250,479.2a3.93,3.93,0,0,1-2.78-1.15L219,449.78a3.94,3.94,0,0,1,0-5.56L247.22,416a3.94,3.94,0,0,1,5.56,0l28.27,28.27a3.94,3.94,0,0,1,0,5.56l-28.27,28.27A3.93,3.93,0,0,1,250,479.2Z"/><path class="cls-5" d="M250,479.2a3.93,3.93,0,0,1-2.78-1.15L219,449.78a3.94,3.94,0,0,1,0-5.56L247.22,416a3.94,3.94,0,0,1,5.56,0l28.27,28.27a3.94,3.94,0,0,1,0,5.56l-28.27,28.27A3.93,3.93,0,0,1,250,479.2Z"/><path class="cls-6" d="M250,470.2a3.93,3.93,0,0,1-2.78-1.15L228,449.78a3.94,3.94,0,0,1,0-5.56L247.22,425a3.94,3.94,0,0,1,5.56,0l19.27,19.27a3.94,3.94,0,0,1,0,5.56l-19.27,19.27A3.93,3.93,0,0,1,250,470.2Z"/><path class="cls-7" d="M250,468.87a3.93,3.93,0,0,1-2.78-1.15l-17.94-17.94a3.94,3.94,0,0,1,0-5.56l17.94-17.94a3.94,3.94,0,0,1,5.56,0l17.94,17.94a3.94,3.94,0,0,1,0,5.56l-17.94,17.94A3.93,3.93,0,0,1,250,468.87Z"/><path class="cls-2" d="M242.09,470.91l-6.57-6.34c-2.21-2.13-4.41-4.31-6.6-6.49l-.16-.16.16-.17,2.82-2.84.17-.18.18.18c4.32,4.35,8.64,8.69,12.89,13.11l.06.07-.06.06Zm0,0,2.76-2.89v.13c-4.42-4.25-8.77-8.57-13.11-12.89h.35l-2.84,2.82v-.33c2.14,2.15,4.27,4.31,6.4,6.51Z"/><path class="cls-8" d="M233.41,448.41l-2.87-2.77,0-.05,0,0c5.56-5.77,11.22-11.45,16.87-17.13l.18-.18.17.18,2.82,2.84.17.17-.17.16c-2.86,2.84-5.72,5.7-8.6,8.49Zm0,0,8.44-8.66c2.79-2.87,5.59-5.68,8.4-8.5v.33l-2.84-2.82h.35c-5.68,5.66-11.36,11.31-17.12,16.87v-.09Z"/><path class="cls-8" d="M251.41,467.41l-2.87-2.77,0-.05,0,0c5.56-5.77,11.22-11.45,16.87-17.13l.18-.18.17.18,2.82,2.84.17.17-.17.16c-2.86,2.84-5.72,5.7-8.6,8.49Zm0,0,8.44-8.66c2.79-2.87,5.59-5.68,8.4-8.5v.33l-2.84-2.82h.35c-5.68,5.66-11.36,11.31-17.12,16.87v-.09Z"/><path class="cls-9" d="M248,465c0-14.62-11.69-15.95-15.33-16H232l-.11-4h.75c15.19-.37,15.36-14.39,15.36-15h4c0,14.75,14.39,15,15,15v4c-14.83,0-15,15.35-15,16Z"/><path class="cls-2" d="M269.09,440.91l-6.57-6.34c-2.21-2.13-4.41-4.31-6.6-6.49l-.16-.16.16-.17,2.82-2.84.17-.18.18.18c4.32,4.35,8.64,8.69,12.89,13.11l.06.07-.06.06Zm0,0,2.76-2.89v.13c-4.42-4.25-8.77-8.57-13.11-12.89h.35l-2.84,2.82v-.33c2.14,2.15,4.27,4.31,6.4,6.51Z"/><path class="cls-1" d="M446,282.2a3.93,3.93,0,0,1-2.78-1.15L415,252.78a3.94,3.94,0,0,1,0-5.56L443.22,219a3.94,3.94,0,0,1,5.56,0l28.27,28.27a3.94,3.94,0,0,1,0,5.56l-28.27,28.27A3.93,3.93,0,0,1,446,282.2Z"/><path class="cls-5" d="M446,282.2a3.93,3.93,0,0,1-2.78-1.15L415,252.78a3.94,3.94,0,0,1,0-5.56L443.22,219a3.94,3.94,0,0,1,5.56,0l28.27,28.27a3.94,3.94,0,0,1,0,5.56l-28.27,28.27A3.93,3.93,0,0,1,446,282.2Z"/><path class="cls-6" d="M446,273.2a3.93,3.93,0,0,1-2.78-1.15L424,252.78a3.94,3.94,0,0,1,0-5.56L443.22,228a3.94,3.94,0,0,1,5.56,0l19.27,19.27a3.94,3.94,0,0,1,0,5.56l-19.27,19.27A3.93,3.93,0,0,1,446,273.2Z"/><path class="cls-7" d="M446,271.87a3.93,3.93,0,0,1-2.78-1.15l-17.94-17.94a3.94,3.94,0,0,1,0-5.56l17.94-17.94a3.94,3.94,0,0,1,5.56,0l17.94,17.94a3.94,3.94,0,0,1,0,5.56l-17.94,17.94A3.93,3.93,0,0,1,446,271.87Z"/><path class="cls-2" d="M456.91,270.91,454,268.15l-.06-.06L454,268c4.25-4.42,8.57-8.76,12.89-13.11l.18-.18.17.18,2.82,2.84.16.17-.16.16c-2.19,2.18-4.39,4.36-6.6,6.49Zm0,0,6.44-6.65c2.13-2.2,4.26-4.36,6.4-6.51v.33l-2.84-2.82h.35c-4.34,4.32-8.69,8.64-13.11,12.89V268Z"/><path class="cls-8" d="M444.59,269.41c-5.67-5.49-11.46-11.13-17.17-16.83l-.17-.17.17-.16,2.82-2.84.17-.18.18.18c5.65,5.68,11.31,11.36,16.87,17.13l.05,0-.05.05Zm0,0,2.77-2.87v.1c-5.76-5.57-11.44-11.22-17.12-16.88h.35l-2.84,2.82v-.33C433.37,257.88,438.92,263.58,444.59,269.41Z"/><path class="cls-8" d="M463.59,251.41c-5.67-5.49-11.46-11.13-17.17-16.83l-.17-.17.17-.16,2.82-2.84.17-.18.18.18c5.65,5.68,11.31,11.36,16.87,17.13l.05.05-.05,0Zm0,0,2.77-2.87v.1c-5.76-5.57-11.44-11.22-17.12-16.88h.35l-2.84,2.82v-.33C452.37,239.88,457.92,245.58,463.59,251.41Z"/><path class="cls-9" d="M444,268.11s0-.27,0-.76c-.38-15.09-14.4-15.35-15-15.35v-4c14.75,0,15-14.39,15-15h4c0,14.83,15.35,15,16,15v4c-14.62,0-15.95,11.69-16,15.33,0,.22,0,.44,0,.67Z"/><path class="cls-2" d="M426.91,243.91,424,241.15l-.06-.06L424,241c4.25-4.42,8.57-8.76,12.89-13.11l.18-.18.17.18,2.82,2.84.16.17-.16.16c-2.19,2.18-4.39,4.36-6.6,6.49Zm0,0,6.44-6.65c2.13-2.2,4.26-4.36,6.4-6.51v.33l-2.84-2.82h.35c-4.34,4.32-8.69,8.64-13.11,12.89V241Z"/><path class="cls-1" d="M54,282.2a3.93,3.93,0,0,1-2.78-1.15L23,252.78a3.94,3.94,0,0,1,0-5.56L51.22,219a3.94,3.94,0,0,1,5.56,0l28.27,28.27a3.94,3.94,0,0,1,0,5.56L56.78,281.05A3.93,3.93,0,0,1,54,282.2Z"/><path class="cls-5" d="M54,282.2a3.93,3.93,0,0,1-2.78-1.15L23,252.78a3.94,3.94,0,0,1,0-5.56L51.22,219a3.94,3.94,0,0,1,5.56,0l28.27,28.27a3.94,3.94,0,0,1,0,5.56L56.78,281.05A3.93,3.93,0,0,1,54,282.2Z"/><path class="cls-6" d="M54,273.2a3.93,3.93,0,0,1-2.78-1.15L32,252.78a3.94,3.94,0,0,1,0-5.56L51.22,228a3.94,3.94,0,0,1,5.56,0l19.27,19.27a3.94,3.94,0,0,1,0,5.56L56.78,272.05A3.93,3.93,0,0,1,54,273.2Z"/><path class="cls-7" d="M54,271.87a3.93,3.93,0,0,1-2.78-1.15L33.28,252.78a3.94,3.94,0,0,1,0-5.56l17.94-17.94a3.94,3.94,0,0,1,5.56,0l17.94,17.94a3.94,3.94,0,0,1,0,5.56L56.78,270.72A3.93,3.93,0,0,1,54,271.87Z"/><path class="cls-2" d="M32.91,244.91,30,242.15l-.06-.06L30,242c4.25-4.42,8.57-8.76,12.89-13.11l.18-.18.17.18,2.82,2.84.16.17-.16.16c-2.19,2.18-4.39,4.36-6.6,6.49Zm0,0,6.44-6.65c2.13-2.2,4.26-4.36,6.4-6.51v.33l-2.84-2.82h.35c-4.34,4.32-8.69,8.64-13.11,12.89V242Z"/><path class="cls-8" d="M69.59,250.41c-5.67-5.49-11.46-11.13-17.17-16.83l-.17-.17.17-.16,2.82-2.84.17-.18.18.18c5.65,5.68,11.31,11.36,16.87,17.13l.05.05-.05,0Zm0,0,2.77-2.87v.1c-5.76-5.57-11.44-11.22-17.12-16.88h.35l-2.84,2.82v-.33C58.37,238.88,63.92,244.58,69.59,250.41Z"/><path class="cls-8" d="M50.59,268.41c-5.67-5.49-11.46-11.13-17.17-16.83l-.17-.17.17-.16,2.82-2.84.17-.18.18.18c5.65,5.68,11.31,11.36,16.87,17.13l0,0,0,.05Zm0,0,2.77-2.87v.1c-5.76-5.57-11.44-11.22-17.12-16.88h.35l-2.84,2.82v-.33C39.37,256.88,44.92,262.58,50.59,268.41Z"/><path class="cls-9" d="M52,267c0-14.83-15.35-15-16-15v-4c14.62,0,16-11.69,16-15.33,0-.22,0-.44,0-.67l4-.11s0,.27,0,.76C56.39,247.74,70.41,248,71,248v4c-14.75,0-15,14.39-15,15Z"/><path class="cls-2" d="M62.91,271.91,60,269.15l-.06-.06L60,269c4.25-4.42,8.57-8.76,12.89-13.11l.18-.18.17.18,2.82,2.84.16.17-.16.16c-2.19,2.18-4.39,4.36-6.6,6.49Zm0,0,6.44-6.65c2.13-2.2,4.26-4.36,6.4-6.51v.33l-2.84-2.82h.35c-4.34,4.32-8.69,8.64-13.11,12.89V269Z"/><path class="cls-10" d="M250,464.5A214.49,214.49,0,0,1,98.33,98.33,214.49,214.49,0,1,1,401.67,401.67,213.07,213.07,0,0,1,250,464.5Zm0-400C147.71,64.5,64.5,147.71,64.5,250S147.71,435.5,250,435.5,435.5,352.29,435.5,250,352.29,64.5,250,64.5Z"/><path class="cls-10" d="M250,36.5A213.5,213.5,0,0,1,401,401,213.5,213.5,0,0,1,99,99,212.13,212.13,0,0,1,250,36.5m0,400c102.84,0,186.5-83.66,186.5-186.5S352.84,63.5,250,63.5,63.5,147.16,63.5,250,147.16,436.5,250,436.5m0-401A214.49,214.49,0,0,0,98.33,401.67,214.49,214.49,0,1,0,401.67,98.33,213.07,213.07,0,0,0,250,35.5Zm0,400C147.71,435.5,64.5,352.29,64.5,250S147.71,64.5,250,64.5,435.5,147.71,435.5,250,352.29,435.5,250,435.5Z"/><path class="cls-10" d="M250,452C138.62,452,48,361.38,48,250S138.62,48,250,48s202,90.62,202,202S361.38,452,250,452Zm0-387.5C147.71,64.5,64.5,147.71,64.5,250S147.71,435.5,250,435.5,435.5,352.29,435.5,250,352.29,64.5,250,64.5Z"/><path class="cls-10" d="M250,49c110.83,0,201,90.17,201,201S360.83,451,250,451,49,360.83,49,250,139.17,49,250,49m0,387.5c102.84,0,186.5-83.66,186.5-186.5S352.84,63.5,250,63.5,63.5,147.16,63.5,250,147.16,436.5,250,436.5M250,48C138.62,48,48,138.62,48,250s90.62,202,202,202,202-90.62,202-202S361.38,48,250,48Zm0,387.5C147.71,435.5,64.5,352.29,64.5,250S147.71,64.5,250,64.5,435.5,147.71,435.5,250,352.29,435.5,250,435.5Z"/><path class="cls-10" d="M250,452A202,202,0,0,1,48.07,255.21l4-.1C54.88,360.47,141.82,443,250,443s195.12-82.53,197.93-187.89l4,.1A202,202,0,0,1,250,452ZM447.93,244.89C445.12,139.53,358.18,57,250,57S54.88,139.53,52.07,244.89l-4-.1a202,202,0,0,1,403.86,0Z"/><path class="cls-10" d="M250,49A201,201,0,0,1,450.9,243.82l-2,.05C445.55,138.44,358.38,56,250,56S54.45,138.44,51.1,243.87l-2-.05A201,201,0,0,1,250,49M448.9,256.13l2,.05a201,201,0,0,1-401.8,0l2-.05C54.45,361.56,141.62,444,250,444s195.55-82.44,198.9-187.87M250,48A202,202,0,0,0,48.07,244.79l4,.1C54.88,139.53,141.82,57,250,57s195.12,82.53,197.93,187.89l4-.1A202,202,0,0,0,250,48ZM447.93,255.11C445.12,360.47,358.18,443,250,443S54.88,360.47,52.07,255.11l-4,.1a202,202,0,0,0,403.86,0l-4-.1Z"/><path class="cls-10" d="M257.65,447.85C362.71,443.74,445,356.83,445,250S362.71,56.26,257.65,52.15l.16-4a202,202,0,0,1,0,403.7Zm-15.46,4a202,202,0,0,1,0-403.7l.16,4C137.29,56.26,55,143.17,55,250s82.29,193.74,187.35,197.85Z"/><path class="cls-10" d="M258.77,49.19a201,201,0,0,1,0,401.62l-.08-2C363.8,444.16,446,357,446,250S363.8,55.84,258.69,51.19l.08-2m-17.54,0,.08,2C136.2,55.84,54,143,54,250s82.2,194.16,187.31,198.81l-.08,2a201,201,0,0,1,0-401.62m16.58-1-.16,4C362.71,56.26,445,143.17,445,250S362.71,443.74,257.65,447.85l.16,4a202,202,0,0,0,0-403.7Zm-15.62,0a202,202,0,0,0,0,403.7l.16-4C137.29,443.74,55,356.83,55,250S137.29,56.26,242.35,52.15l-.16-4Z"/><path class="cls-10" d="M250,458.12c-107.74,0-196.35-86.76-201.74-197.51l4-.2C57.72,365.6,144.58,448,250,448s192.28-82.4,197.74-187.59l4,.2C446.35,371.36,357.74,458.12,250,458.12ZM447.74,239.59C442.28,134.4,355.42,52,250,52S57.72,134.4,52.26,239.59l-4-.2C53.65,128.64,142.26,41.88,250,41.88s196.35,86.76,201.74,197.51Z"/><path class="cls-10" d="M250,42.88c106.88,0,194.85,85.82,200.69,195.56l-2,.11a199,199,0,0,0-397.38,0l-2-.11C55.15,128.7,143.12,42.88,250,42.88M448.69,261.46l2,.1C444.85,371.3,356.88,457.12,250,457.12S55.15,371.3,49.31,261.56l2-.1C57.3,366.7,144.38,449,250,449s192.7-82.3,198.69-187.54M250,41.88c-107.74,0-196.35,86.76-201.74,197.51l4,.2C57.72,134.4,144.58,52,250,52s192.28,82.4,197.74,187.59l4-.2C446.35,128.64,357.74,41.88,250,41.88ZM447.74,260.41C442.28,365.6,355.42,448,250,448S57.72,365.6,52.26,260.41l-4,.2c5.39,110.75,94,197.51,201.74,197.51s196.35-86.76,201.74-197.51l-4-.2Z"/><path class="cls-10" d="M250,85.2a3.93,3.93,0,0,1-2.78-1.15L219,55.78a3.94,3.94,0,0,1,0-5.56L247.22,22a3.94,3.94,0,0,1,5.56,0l28.27,28.27a3.94,3.94,0,0,1,0,5.56L252.78,84.05A3.93,3.93,0,0,1,250,85.2Z"/><path class="cls-10" d="M250,85.2a3.93,3.93,0,0,1-2.78-1.15L219,55.78a3.94,3.94,0,0,1,0-5.56L247.22,22a3.94,3.94,0,0,1,5.56,0l28.27,28.27a3.94,3.94,0,0,1,0,5.56L252.78,84.05A3.93,3.93,0,0,1,250,85.2Z"/><path class="cls-10" d="M250,76.2a3.93,3.93,0,0,1-2.78-1.15L228,55.78a3.94,3.94,0,0,1,0-5.56L247.22,31a3.94,3.94,0,0,1,5.56,0l19.27,19.27a3.94,3.94,0,0,1,0,5.56L252.78,75.05A3.93,3.93,0,0,1,250,76.2Z"/><path class="cls-10" d="M250,76.2a3.93,3.93,0,0,1-2.78-1.15L228,55.78a3.94,3.94,0,0,1,0-5.56L247.22,31a3.94,3.94,0,0,1,5.56,0l19.27,19.27a3.94,3.94,0,0,1,0,5.56L252.78,75.05A3.93,3.93,0,0,1,250,76.2Z"/><path class="cls-10" d="M250,74.87a3.93,3.93,0,0,1-2.78-1.15L229.28,55.78a3.94,3.94,0,0,1,0-5.56l17.94-17.94a3.94,3.94,0,0,1,5.56,0l17.94,17.94a3.94,3.94,0,0,1,0,5.56L252.78,73.72A3.93,3.93,0,0,1,250,74.87Z"/><path class="cls-10" d="M250,74.87a3.93,3.93,0,0,1-2.78-1.15L229.28,55.78a3.94,3.94,0,0,1,0-5.56l17.94-17.94a3.94,3.94,0,0,1,5.56,0l17.94,17.94a3.94,3.94,0,0,1,0,5.56L252.78,73.72A3.93,3.93,0,0,1,250,74.87Z"/><rect class="cls-10" x="235" y="59.81" width="4" height="18.38" transform="translate(20.63 187.79) rotate(-45)"/><path class="cls-10" d="M242.09,76.91l-6.57-6.34c-2.21-2.13-4.41-4.31-6.6-6.49l-.16-.16.16-.17,2.82-2.84.17-.18.18.18C236.41,65.26,240.73,69.6,245,74l.06.07-.06.06Zm0,0L244.85,74v.13c-4.42-4.25-8.77-8.57-13.11-12.89h.35l-2.84,2.82v-.33c2.14,2.15,4.27,4.31,6.4,6.51Z"/><rect class="cls-10" x="228.48" y="42.5" width="24.04" height="4" transform="translate(38.97 183.09) rotate(-45)"/><path class="cls-10" d="M233.41,54.41l-2.87-2.77,0,0,0-.05c5.56-5.77,11.22-11.45,16.87-17.13l.18-.18.17.18,2.82,2.84.17.17-.17.16c-2.86,2.84-5.72,5.7-8.6,8.49Zm0,0,8.44-8.66c2.79-2.87,5.59-5.68,8.4-8.5v.33l-2.84-2.82h.35c-5.68,5.66-11.36,11.31-17.12,16.87v-.09Z"/><rect class="cls-10" x="246.48" y="61.5" width="24.04" height="4" transform="translate(30.81 201.39) rotate(-45)"/><path class="cls-10" d="M251.41,73.41l-2.87-2.77,0,0,0,0c5.56-5.77,11.22-11.45,16.87-17.13l.18-.18.17.18,2.82,2.84.17.17-.17.16c-2.86,2.84-5.72,5.7-8.6,8.49Zm0,0,8.44-8.66c2.79-2.87,5.59-5.68,8.4-8.5v.33l-2.84-2.82h.35c-5.68,5.66-11.36,11.31-17.12,16.87v-.09Z"/><path class="cls-10" d="M248,71c0-14.62-11.69-16-15.33-16H232l-.11-4h.75C247.83,50.62,248,36.6,248,36h4c0,14.75,14.39,15,15,15v4c-14.83,0-15,15.35-15,16Z"/><path class="cls-10" d="M248,71c0-14.62-11.69-16-15.33-16H232l-.11-4h.75C247.83,50.62,248,36.6,248,36h4c0,14.75,14.39,15,15,15v4c-14.83,0-15,15.35-15,16Z"/><rect class="cls-10" x="262" y="29.81" width="4" height="18.38" transform="translate(49.75 198.1) rotate(-45)"/><path class="cls-10" d="M269.09,46.91l-6.57-6.34c-2.21-2.13-4.41-4.31-6.6-6.49l-.16-.16.16-.17,2.82-2.84.17-.18.18.18C263.41,35.26,267.73,39.6,272,44l.06.07-.06.06Zm0,0L271.85,44v.13c-4.42-4.25-8.77-8.57-13.11-12.89h.35l-2.84,2.82v-.33c2.14,2.15,4.27,4.31,6.4,6.51Z"/><path class="cls-10" d="M250,479.2a3.93,3.93,0,0,1-2.78-1.15L219,449.78a3.94,3.94,0,0,1,0-5.56L247.22,416a3.94,3.94,0,0,1,5.56,0l28.27,28.27a3.94,3.94,0,0,1,0,5.56l-28.27,28.27A3.93,3.93,0,0,1,250,479.2Z"/><path class="cls-10" d="M250,479.2a3.93,3.93,0,0,1-2.78-1.15L219,449.78a3.94,3.94,0,0,1,0-5.56L247.22,416a3.94,3.94,0,0,1,5.56,0l28.27,28.27a3.94,3.94,0,0,1,0,5.56l-28.27,28.27A3.93,3.93,0,0,1,250,479.2Z"/><path class="cls-10" d="M250,470.2a3.93,3.93,0,0,1-2.78-1.15L228,449.78a3.94,3.94,0,0,1,0-5.56L247.22,425a3.94,3.94,0,0,1,5.56,0l19.27,19.27a3.94,3.94,0,0,1,0,5.56l-19.27,19.27A3.93,3.93,0,0,1,250,470.2Z"/><path class="cls-10" d="M250,470.2a3.93,3.93,0,0,1-2.78-1.15L228,449.78a3.94,3.94,0,0,1,0-5.56L247.22,425a3.94,3.94,0,0,1,5.56,0l19.27,19.27a3.94,3.94,0,0,1,0,5.56l-19.27,19.27A3.93,3.93,0,0,1,250,470.2Z"/><path class="cls-10" d="M250,468.87a3.93,3.93,0,0,1-2.78-1.15l-17.94-17.94a3.94,3.94,0,0,1,0-5.56l17.94-17.94a3.94,3.94,0,0,1,5.56,0l17.94,17.94a3.94,3.94,0,0,1,0,5.56l-17.94,17.94A3.93,3.93,0,0,1,250,468.87Z"/><path class="cls-10" d="M250,468.87a3.93,3.93,0,0,1-2.78-1.15l-17.94-17.94a3.94,3.94,0,0,1,0-5.56l17.94-17.94a3.94,3.94,0,0,1,5.56,0l17.94,17.94a3.94,3.94,0,0,1,0,5.56l-17.94,17.94A3.93,3.93,0,0,1,250,468.87Z"/><rect class="cls-10" x="235" y="453.81" width="4" height="18.38" transform="translate(-257.97 303.19) rotate(-45)"/><path class="cls-10" d="M242.09,470.91l-6.57-6.34c-2.21-2.13-4.41-4.31-6.6-6.49l-.16-.16.16-.17,2.82-2.84.17-.18.18.18c4.32,4.35,8.64,8.69,12.89,13.11l.06.07-.06.06Zm0,0,2.76-2.89v.13c-4.42-4.25-8.77-8.57-13.11-12.89h.35l-2.84,2.82v-.33c2.14,2.15,4.27,4.31,6.4,6.51Z"/><rect class="cls-10" x="228.48" y="436.5" width="24.04" height="4" transform="translate(-239.63 298.49) rotate(-45)"/><path class="cls-10" d="M233.41,448.41l-2.87-2.77,0-.05,0,0c5.56-5.77,11.22-11.45,16.87-17.13l.18-.18.17.18,2.82,2.84.17.17-.17.16c-2.86,2.84-5.72,5.7-8.6,8.49Zm0,0,8.44-8.66c2.79-2.87,5.59-5.68,8.4-8.5v.33l-2.84-2.82h.35c-5.68,5.66-11.36,11.31-17.12,16.87v-.09Z"/><rect class="cls-10" x="246.48" y="455.5" width="24.04" height="4" transform="translate(-247.79 316.79) rotate(-45)"/><path class="cls-10" d="M251.41,467.41l-2.87-2.77,0-.05,0,0c5.56-5.77,11.22-11.45,16.87-17.13l.18-.18.17.18,2.82,2.84.17.17-.17.16c-2.86,2.84-5.72,5.7-8.6,8.49Zm0,0,8.44-8.66c2.79-2.87,5.59-5.68,8.4-8.5v.33l-2.84-2.82h.35c-5.68,5.66-11.36,11.31-17.12,16.87v-.09Z"/><path class="cls-10" d="M248,465c0-14.62-11.69-15.95-15.33-16H232l-.11-4h.75c15.19-.37,15.36-14.39,15.36-15h4c0,14.75,14.39,15,15,15v4c-14.83,0-15,15.35-15,16Z"/><path class="cls-10" d="M248,465c0-14.62-11.69-15.95-15.33-16H232l-.11-4h.75c15.19-.37,15.36-14.39,15.36-15h4c0,14.75,14.39,15,15,15v4c-14.83,0-15,15.35-15,16Z"/><rect class="cls-10" x="262" y="423.81" width="4" height="18.38" transform="translate(-228.85 313.5) rotate(-45)"/><path class="cls-10" d="M269.09,440.91l-6.57-6.34c-2.21-2.13-4.41-4.31-6.6-6.49l-.16-.16.16-.17,2.82-2.84.17-.18.18.18c4.32,4.35,8.64,8.69,12.89,13.11l.06.07-.06.06Zm0,0,2.76-2.89v.13c-4.42-4.25-8.77-8.57-13.11-12.89h.35l-2.84,2.82v-.33c2.14,2.15,4.27,4.31,6.4,6.51Z"/><path class="cls-10" d="M446,282.2a3.93,3.93,0,0,1-2.78-1.15L415,252.78a3.94,3.94,0,0,1,0-5.56L443.22,219a3.94,3.94,0,0,1,5.56,0l28.27,28.27a3.94,3.94,0,0,1,0,5.56l-28.27,28.27A3.93,3.93,0,0,1,446,282.2Z"/><path class="cls-10" d="M446,282.2a3.93,3.93,0,0,1-2.78-1.15L415,252.78a3.94,3.94,0,0,1,0-5.56L443.22,219a3.94,3.94,0,0,1,5.56,0l28.27,28.27a3.94,3.94,0,0,1,0,5.56l-28.27,28.27A3.93,3.93,0,0,1,446,282.2Z"/><path class="cls-10" d="M446,273.2a3.93,3.93,0,0,1-2.78-1.15L424,252.78a3.94,3.94,0,0,1,0-5.56L443.22,228a3.94,3.94,0,0,1,5.56,0l19.27,19.27a3.94,3.94,0,0,1,0,5.56l-19.27,19.27A3.93,3.93,0,0,1,446,273.2Z"/><path class="cls-10" d="M446,273.2a3.93,3.93,0,0,1-2.78-1.15L424,252.78a3.94,3.94,0,0,1,0-5.56L443.22,228a3.94,3.94,0,0,1,5.56,0l19.27,19.27a3.94,3.94,0,0,1,0,5.56l-19.27,19.27A3.93,3.93,0,0,1,446,273.2Z"/><path class="cls-10" d="M446,271.87a3.93,3.93,0,0,1-2.78-1.15l-17.94-17.94a3.94,3.94,0,0,1,0-5.56l17.94-17.94a3.94,3.94,0,0,1,5.56,0l17.94,17.94a3.94,3.94,0,0,1,0,5.56l-17.94,17.94A3.93,3.93,0,0,1,446,271.87Z"/><path class="cls-10" d="M446,271.87a3.93,3.93,0,0,1-2.78-1.15l-17.94-17.94a3.94,3.94,0,0,1,0-5.56l17.94-17.94a3.94,3.94,0,0,1,5.56,0l17.94,17.94a3.94,3.94,0,0,1,0,5.56l-17.94,17.94A3.93,3.93,0,0,1,446,271.87Z"/><rect class="cls-10" x="452.81" y="261" width="18.38" height="4" transform="translate(-50.65 403.71) rotate(-45)"/><path class="cls-10" d="M456.91,270.91,454,268.15l-.06-.06L454,268c4.25-4.42,8.57-8.76,12.89-13.11l.18-.18.17.18,2.82,2.84.16.17-.16.16c-2.19,2.18-4.39,4.36-6.6,6.49Zm0,0,6.44-6.65c2.13-2.2,4.26-4.36,6.4-6.51v.33l-2.84-2.82h.35c-4.34,4.32-8.69,8.64-13.11,12.89V268Z"/><rect class="cls-10" x="435.5" y="247.48" width="4" height="24.04" transform="translate(-55.35 385.37) rotate(-45)"/><path class="cls-10" d="M444.59,269.41c-5.67-5.49-11.46-11.13-17.17-16.83l-.17-.17.17-.16,2.82-2.84.17-.18.18.18c5.65,5.68,11.31,11.36,16.87,17.13l.05,0-.05.05Zm0,0,2.77-2.87v.1c-5.76-5.57-11.44-11.22-17.12-16.88h.35l-2.84,2.82v-.33C433.37,257.88,438.92,263.58,444.59,269.41Z"/><rect class="cls-10" x="454.5" y="229.48" width="4" height="24.04" transform="translate(-37.06 393.53) rotate(-45)"/><path class="cls-10" d="M463.59,251.41c-5.67-5.49-11.46-11.13-17.17-16.83l-.17-.17.17-.16,2.82-2.84.17-.18.18.18c5.65,5.68,11.31,11.36,16.87,17.13l.05.05-.05,0Zm0,0,2.77-2.87v.1c-5.76-5.57-11.44-11.22-17.12-16.88h.35l-2.84,2.82v-.33C452.37,239.88,457.92,245.58,463.59,251.41Z"/><path class="cls-10" d="M444,268.11s0-.27,0-.76c-.38-15.09-14.4-15.35-15-15.35v-4c14.75,0,15-14.39,15-15h4c0,14.83,15.35,15,16,15v4c-14.62,0-15.95,11.69-16,15.33,0,.22,0,.44,0,.67Z"/><path class="cls-10" d="M444,268.11s0-.27,0-.76c-.38-15.09-14.4-15.35-15-15.35v-4c14.75,0,15-14.39,15-15h4c0,14.83,15.35,15,16,15v4c-14.62,0-15.95,11.69-16,15.33,0,.22,0,.44,0,.67Z"/><rect class="cls-10" x="422.81" y="234" width="18.38" height="4" transform="translate(-40.35 374.59) rotate(-45)"/><path class="cls-10" d="M426.91,243.91,424,241.15l-.06-.06L424,241c4.25-4.42,8.57-8.76,12.89-13.11l.18-.18.17.18,2.82,2.84.16.17-.16.16c-2.19,2.18-4.39,4.36-6.6,6.49Zm0,0,6.44-6.65c2.13-2.2,4.26-4.36,6.4-6.51v.33l-2.84-2.82h.35c-4.34,4.32-8.69,8.64-13.11,12.89V241Z"/><path class="cls-10" d="M54,282.2a3.93,3.93,0,0,1-2.78-1.15L23,252.78a3.94,3.94,0,0,1,0-5.56L51.22,219a3.94,3.94,0,0,1,5.56,0l28.27,28.27a3.94,3.94,0,0,1,0,5.56L56.78,281.05A3.93,3.93,0,0,1,54,282.2Z"/><path class="cls-10" d="M54,282.2a3.93,3.93,0,0,1-2.78-1.15L23,252.78a3.94,3.94,0,0,1,0-5.56L51.22,219a3.94,3.94,0,0,1,5.56,0l28.27,28.27a3.94,3.94,0,0,1,0,5.56L56.78,281.05A3.93,3.93,0,0,1,54,282.2Z"/><path class="cls-10" d="M54,273.2a3.93,3.93,0,0,1-2.78-1.15L32,252.78a3.94,3.94,0,0,1,0-5.56L51.22,228a3.94,3.94,0,0,1,5.56,0l19.27,19.27a3.94,3.94,0,0,1,0,5.56L56.78,272.05A3.93,3.93,0,0,1,54,273.2Z"/><path class="cls-10" d="M54,273.2a3.93,3.93,0,0,1-2.78-1.15L32,252.78a3.94,3.94,0,0,1,0-5.56L51.22,228a3.94,3.94,0,0,1,5.56,0l19.27,19.27a3.94,3.94,0,0,1,0,5.56L56.78,272.05A3.93,3.93,0,0,1,54,273.2Z"/><path class="cls-10" d="M54,271.87a3.93,3.93,0,0,1-2.78-1.15L33.28,252.78a3.94,3.94,0,0,1,0-5.56l17.94-17.94a3.94,3.94,0,0,1,5.56,0l17.94,17.94a3.94,3.94,0,0,1,0,5.56L56.78,270.72A3.93,3.93,0,0,1,54,271.87Z"/><path class="cls-10" d="M54,271.87a3.93,3.93,0,0,1-2.78-1.15L33.28,252.78a3.94,3.94,0,0,1,0-5.56l17.94-17.94a3.94,3.94,0,0,1,5.56,0l17.94,17.94a3.94,3.94,0,0,1,0,5.56L56.78,270.72A3.93,3.93,0,0,1,54,271.87Z"/><rect class="cls-10" x="28.81" y="235" width="18.38" height="4" transform="translate(-156.45 96.29) rotate(-45)"/><path class="cls-10" d="M32.91,244.91,30,242.15l-.06-.06L30,242c4.25-4.42,8.57-8.76,12.89-13.11l.18-.18.17.18,2.82,2.84.16.17-.16.16c-2.19,2.18-4.39,4.36-6.6,6.49Zm0,0,6.44-6.65c2.13-2.2,4.26-4.36,6.4-6.51v.33l-2.84-2.82h.35c-4.34,4.32-8.69,8.64-13.11,12.89V242Z"/><rect class="cls-10" x="60.5" y="228.48" width="4" height="24.04" transform="translate(-151.75 114.63) rotate(-45)"/><path class="cls-10" d="M69.59,250.41c-5.67-5.49-11.46-11.13-17.17-16.83l-.17-.17.17-.16,2.82-2.84.17-.18.18.18c5.65,5.68,11.31,11.36,16.87,17.13l.05.05-.05,0Zm0,0,2.77-2.87v.1c-5.76-5.57-11.44-11.22-17.12-16.88h.35l-2.84,2.82v-.33C58.37,238.88,63.92,244.58,69.59,250.41Z"/><rect class="cls-10" x="41.5" y="246.48" width="4" height="24.04" transform="translate(-170.05 106.47) rotate(-45)"/><path class="cls-10" d="M50.59,268.41c-5.67-5.49-11.46-11.13-17.17-16.83l-.17-.17.17-.16,2.82-2.84.17-.18.18.18c5.65,5.68,11.31,11.36,16.87,17.13l0,0,0,.05Zm0,0,2.77-2.87v.1c-5.76-5.57-11.44-11.22-17.12-16.88h.35l-2.84,2.82v-.33C39.37,256.88,44.92,262.58,50.59,268.41Z"/><path class="cls-10" d="M52,267c0-14.83-15.35-15-16-15v-4c14.62,0,16-11.69,16-15.33,0-.22,0-.44,0-.67l4-.11s0,.27,0,.76C56.39,247.74,70.41,248,71,248v4c-14.75,0-15,14.39-15,15Z"/><path class="cls-10" d="M52,267c0-14.83-15.35-15-16-15v-4c14.62,0,16-11.69,16-15.33,0-.22,0-.44,0-.67l4-.11s0,.27,0,.76C56.39,247.74,70.41,248,71,248v4c-14.75,0-15,14.39-15,15Z"/><rect class="cls-10" x="58.81" y="262" width="18.38" height="4" transform="translate(-166.76 125.41) rotate(-45)"/><path class="cls-10" d="M62.91,271.91,60,269.15l-.06-.06L60,269c4.25-4.42,8.57-8.76,12.89-13.11l.18-.18.17.18,2.82,2.84.16.17-.16.16c-2.19,2.18-4.39,4.36-6.6,6.49Zm0,0,6.44-6.65c2.13-2.2,4.26-4.36,6.4-6.51v.33l-2.84-2.82h.35c-4.34,4.32-8.69,8.64-13.11,12.89V269Z"/><path class="cls-1" d="M250,37.5C132.64,37.5,37.5,132.64,37.5,250S132.64,462.5,250,462.5,462.5,367.36,462.5,250,367.36,37.5,250,37.5Zm0,400C146.45,437.5,62.5,353.55,62.5,250S146.45,62.5,250,62.5,437.5,146.45,437.5,250,353.55,437.5,250,437.5Z"/><path class="cls-2" d="M250,50C139.54,50,50,139.54,50,250s89.54,200,200,200,200-89.54,200-200S360.46,50,250,50Zm0,387.5C146.45,437.5,62.5,353.55,62.5,250S146.45,62.5,250,62.5,437.5,146.45,437.5,250,353.55,437.5,250,437.5Z"/><path class="cls-3" d="M250,55c108.69,0,197.12,84.52,199.93,189.84C447.2,136.76,358.73,50,250,50S52.8,136.76,50.07,244.84C52.88,139.52,141.31,55,250,55Zm0,390C141.31,445,52.88,360.48,50.07,255.16,52.8,363.24,141.27,450,250,450s197.2-86.76,199.93-194.84C447.12,360.48,358.69,445,250,445Z"/><path class="cls-4" d="M257.73,50.15C362.94,54.27,447,142.17,447,250S362.94,445.73,257.73,449.85C364.61,445.79,450,357.87,450,250S364.61,54.21,257.73,50.15Zm-15.46,0C135.39,54.21,50,142.13,50,250s85.39,195.79,192.27,199.85C137.06,445.73,53,357.83,53,250S137.06,54.27,242.27,50.15Z"/><path class="cls-4" d="M250,450C143.07,450,55.74,366.08,50.26,260.51c5.3,109,92.7,195.61,199.74,195.61s194.44-86.66,199.74-195.61C444.26,366.08,356.93,450,250,450Zm0-406.12c-107,0-194.44,86.66-199.74,195.61C55.74,133.92,143.07,50,250,50s194.26,83.92,199.74,189.49C444.44,130.54,357,43.88,250,43.88Z"/><rect class="cls-11" x="228.08" y="31.08" width="43.84" height="43.84" rx="1.93" transform="translate(110.7 -161.25) rotate(45)"/><rect class="cls-6" x="234.44" y="37.44" width="31.11" height="31.11" rx="1.93" transform="translate(110.7 -161.25) rotate(45)"/><rect class="cls-7" x="235.39" y="38.39" width="29.23" height="29.23" rx="1.93" transform="translate(110.7 -161.25) rotate(45)"/><path class="cls-2" d="M230.5,62.5c2.31,2,4.49,4.18,6.68,6.32s4.3,4.37,6.32,6.68c-2.31-2-4.49-4.18-6.68-6.32S232.52,64.81,230.5,62.5Z"/><path class="cls-8" d="M232,53c2.69-3,5.51-5.82,8.32-8.68S246,38.69,249,36c-2.69,3-5.51,5.82-8.32,8.68S235,50.31,232,53Z"/><path class="cls-8" d="M250,72c2.69-3,5.51-5.82,8.32-8.68S264,57.69,267,55c-2.69,3-5.51,5.82-8.32,8.68S253,69.31,250,72Z"/><path class="cls-9" d="M232,53s18-1,18,18c0,0,0-18,17-18,0,0-17,0-17-17C250,36,250,53,232,53Z"/><path class="cls-2" d="M257.5,32.5c2.31,2,4.49,4.18,6.68,6.32s4.3,4.37,6.32,6.68c-2.31-2-4.49-4.18-6.68-6.32S259.52,34.81,257.5,32.5Z"/><rect class="cls-11" x="228.08" y="425.08" width="43.84" height="43.84" rx="1.93" transform="translate(389.3 -45.85) rotate(45)"/><rect class="cls-6" x="234.44" y="431.44" width="31.11" height="31.11" rx="1.93" transform="translate(389.3 -45.85) rotate(45)"/><rect class="cls-7" x="235.39" y="432.39" width="29.23" height="29.23" rx="1.93" transform="translate(389.3 -45.85) rotate(45)"/><path class="cls-2" d="M230.5,456.5c2.31,2,4.49,4.18,6.68,6.32s4.3,4.37,6.32,6.68c-2.31-2-4.49-4.18-6.68-6.32S232.52,458.81,230.5,456.5Z"/><path class="cls-8" d="M232,447c2.69-3,5.51-5.82,8.32-8.68S246,432.69,249,430c-2.69,3-5.51,5.82-8.32,8.68S235,444.31,232,447Z"/><path class="cls-8" d="M250,466c2.69-3,5.51-5.82,8.32-8.68S264,451.69,267,449c-2.69,3-5.51,5.82-8.32,8.68S253,463.31,250,466Z"/><path class="cls-9" d="M232,447s18-1,18,18c0,0,0-18,17-18,0,0-17,0-17-17C250,430,250,447,232,447Z"/><path class="cls-2" d="M257.5,426.5c2.31,2,4.49,4.18,6.68,6.32s4.3,4.37,6.32,6.68c-2.31-2-4.49-4.18-6.68-6.32S259.52,428.81,257.5,426.5Z"/><rect class="cls-11" x="424.08" y="228.08" width="43.84" height="43.84" rx="1.93" transform="translate(-46.15 388.59) rotate(-45)"/><rect class="cls-6" x="430.44" y="234.44" width="31.11" height="31.11" rx="1.93" transform="translate(-46.15 388.59) rotate(-45)"/><rect class="cls-7" x="431.39" y="235.39" width="29.23" height="29.23" rx="1.93" transform="translate(-46.15 388.59) rotate(-45)"/><path class="cls-2" d="M455.5,269.5c2-2.31,4.18-4.49,6.32-6.68s4.37-4.3,6.68-6.32c-2,2.31-4.18,4.49-6.32,6.68S457.81,267.48,455.5,269.5Z"/><path class="cls-8" d="M446,268c-3-2.69-5.82-5.51-8.68-8.32S431.69,254,429,251c3,2.69,5.82,5.51,8.68,8.32S443.31,265,446,268Z"/><path class="cls-8" d="M465,250c-3-2.69-5.82-5.51-8.68-8.32S450.69,236,448,233c3,2.69,5.82,5.51,8.68,8.32S462.31,247,465,250Z"/><path class="cls-9" d="M446,268s-1-18,18-18c0,0-18,0-18-17,0,0,0,17-17,17C429,250,446,250,446,268Z"/><path class="cls-2" d="M425.5,242.5c2-2.31,4.18-4.49,6.32-6.68s4.37-4.3,6.68-6.32c-2,2.31-4.18,4.49-6.32,6.68S427.81,240.48,425.5,242.5Z"/><rect class="cls-11" x="32.08" y="228.08" width="43.84" height="43.84" rx="1.93" transform="translate(268.96 388.59) rotate(135)"/><rect class="cls-6" x="38.44" y="234.44" width="31.11" height="31.11" rx="1.93" transform="translate(268.96 388.59) rotate(135)"/><rect class="cls-7" x="39.39" y="235.39" width="29.23" height="29.23" rx="1.93" transform="translate(268.96 388.59) rotate(135)"/><path class="cls-2" d="M44.5,230.5c-2,2.31-4.18,4.49-6.32,6.68s-4.37,4.3-6.68,6.32c2-2.31,4.18-4.49,6.32-6.68S42.19,232.52,44.5,230.5Z"/><path class="cls-8" d="M54,232c3,2.69,5.82,5.51,8.68,8.32S68.31,246,71,249c-3-2.69-5.82-5.51-8.68-8.32S56.69,235,54,232Z"/><path class="cls-8" d="M35,250c3,2.69,5.82,5.51,8.68,8.32S49.31,264,52,267c-3-2.69-5.82-5.51-8.68-8.32S37.69,253,35,250Z"/><path class="cls-9" d="M54,232s1,18-18,18c0,0,18,0,18,17,0,0,0-17,17-17C71,250,54,250,54,232Z"/><path class="cls-2" d="M74.5,257.5c-2,2.31-4.18,4.49-6.32,6.68s-4.37,4.3-6.68,6.32c2-2.31,4.18-4.49,6.32-6.68S72.19,259.52,74.5,257.5Z"/></svg>