<svg id="Layer_2" data-name="Layer 2" xmlns="http://www.w3.org/2000/svg" viewBox="0 0 500 500"><defs><style>.cls-1{fill:#c4c4c4;}.cls-2{fill:#666;}.cls-3{fill:#3d3d3d;}.cls-4{fill:#e0e0e0;}.cls-5{fill:#fca956;}.cls-6{fill:#82572c;}.cls-7{fill:#727272;}.cls-8{fill:#a5a5a5;}.cls-9{fill:#ff4e00;}.cls-10{fill:#bc2c00;}.cls-11{fill:#ff7443;}.cls-12{fill:#231f20;}</style></defs><title>Artboard 8</title><path class="cls-1" d="M250,37.5C132.64,37.5,37.5,132.64,37.5,250S132.64,462.5,250,462.5,462.5,367.36,462.5,250,367.36,37.5,250,37.5Zm0,400C146.45,437.5,62.5,353.55,62.5,250S146.45,62.5,250,62.5,437.5,146.45,437.5,250,353.55,437.5,250,437.5Z"/><path class="cls-2" d="M250,50C139.54,50,50,139.54,50,250s89.54,200,200,200,200-89.54,200-200S360.46,50,250,50Zm0,387.5C146.45,437.5,62.5,353.55,62.5,250S146.45,62.5,250,62.5,437.5,146.45,437.5,250,353.55,437.5,250,437.5Z"/><path class="cls-3" d="M250,55c108.69,0,197.12,84.52,199.93,189.84C447.2,136.76,358.73,50,250,50S52.8,136.76,50.07,244.84C52.88,139.52,141.31,55,250,55Zm0,390C141.31,445,52.88,360.48,50.07,255.16,52.8,363.24,141.27,450,250,450s197.2-86.76,199.93-194.84C447.12,360.48,358.69,445,250,445Z"/><path class="cls-4" d="M257.73,50.15C362.94,54.27,447,142.17,447,250S362.94,445.73,257.73,449.85C364.61,445.79,450,357.87,450,250S364.61,54.21,257.73,50.15Zm-15.46,0C135.39,54.21,50,142.13,50,250s85.39,195.79,192.27,199.85C137.06,445.73,53,357.83,53,250S137.06,54.27,242.27,50.15Z"/><path class="cls-4" d="M250,450C143.07,450,55.74,366.08,50.26,260.51c5.3,109,92.7,195.61,199.74,195.61s194.44-86.66,199.74-195.61C444.26,366.08,356.93,450,250,450Zm0-406.12c-107,0-194.44,86.66-199.74,195.61C55.74,133.92,143.07,50,250,50s194.26,83.92,199.74,189.49C444.44,130.54,357,43.88,250,43.88Z"/><path class="cls-5" d="M231.94,434.48c-1.92,1.55-5.51,3.26-12,3.42-4.85.13-11.31-.61-19.91-2.9-16.27-4.34-26.66-16-32.76-25.83a77,77,0,0,1-6.12-12.07C163.42,399,198.23,427.42,231.94,434.48Z"/><path class="cls-2" d="M250,452s-86,6-89-55c0,0,49,41,88,39Z"/><path class="cls-2" d="M161,397s46.7,39.07,85.2,39.07c.94,0,1.87,0,2.8-.07l1,16s-2.32.16-6.22.16C224,452.16,163.51,448,161,397m-1.11-2.23.11,2.28c1.1,22.25,13.05,38.26,35.52,47.57,17.94,7.43,37.93,8.54,48.26,8.54,3.89,0,6.19-.16,6.29-.16l1-.07-.06-1-1-16-.06-1-1,.05c-.91.05-1.81.07-2.75.07-37.7,0-84.09-38.45-84.56-38.84l-1.75-1.46Z"/><path class="cls-2" d="M231.94,434.48c-1.92,1.55-5.51,3.26-12,3.42-4.85.13-11.31-.61-19.91-2.9-16.27-4.34-26.66-16-32.76-25.83a77,77,0,0,1-6.12-12.07C163.42,399,198.23,427.42,231.94,434.48Z"/><path class="cls-2" d="M163.61,400.36c9.34,7.23,37.79,27.91,65.76,34.57a22.24,22.24,0,0,1-9.49,2h-1A73.89,73.89,0,0,1,200.26,434c-16.21-4.32-26.44-16.19-32.17-25.39a77.09,77.09,0,0,1-4.48-8.28m-2.49-3.26a77,77,0,0,0,6.12,12.07C173.34,419,183.73,430.66,200,435a74.6,74.6,0,0,0,18.83,2.91h1.08c6.52-.16,10.11-1.87,12-3.42-33.71-7.06-68.52-35.48-70.82-37.38Z"/><path class="cls-1" d="M250,452s-86,6-89-55c0,0,49,41,88,39Z"/><path class="cls-4" d="M231.94,434.48c-1.92,1.55-5.51,3.26-12,3.42-4.85.13-11.31-.61-19.91-2.9-16.27-4.34-26.66-16-32.76-25.83a77,77,0,0,1-6.12-12.07C163.42,399,198.23,427.42,231.94,434.48Z"/><path class="cls-6" d="M248.05,452.12c-27.27,19.29-55.75,21.76-55.75,21.76.44-.44.9-.87,1.36-1.3a128,128,0,0,0,51.55-20.18C247,452.19,248.05,452.12,248.05,452.12Z"/><path class="cls-2" d="M248.05,452.12s-36.25,2.43-55.75,21.76C192.3,473.88,220.79,471.41,248.05,452.12Z"/><path class="cls-2" d="M248.05,452.12c-27.26,19.29-55.75,21.76-55.75,21.76,19.5-19.33,55.75-21.76,55.75-21.76m3.47-1.23-3.54.23c-.37,0-36.84,2.68-56.38,22.05l-2,1.94,2.75-.24c.29,0,29.07-2.7,56.24-21.93l2.89-2.05Z"/><path class="cls-2" d="M248.05,452.12c-27.27,19.29-55.75,21.76-55.75,21.76.44-.44.9-.87,1.36-1.3a128,128,0,0,0,51.55-20.18C247,452.19,248.05,452.12,248.05,452.12Z"/><path class="cls-2" d="M248.05,452.12s-1,.07-2.84.28a128,128,0,0,1-51.55,20.18c-.46.43-.92.86-1.36,1.3,0,0,28.48-2.47,55.75-21.76Z"/><path class="cls-1" d="M248.05,452.12s-36.25,2.43-55.75,21.76C192.3,473.88,220.79,471.41,248.05,452.12Z"/><path class="cls-2" d="M248.05,452.12c-27.27,19.29-55.75,21.76-55.75,21.76.44-.44.9-.87,1.36-1.3a128,128,0,0,0,51.55-20.18C247,452.19,248.05,452.12,248.05,452.12Z"/><path class="cls-5" d="M248,453l-.72.26c-12.81-4.45-50.18-15.48-93.61-10.58l-.67-.47C206.63,432.43,248,453,248,453Z"/><path class="cls-6" d="M248,453c-53.94,20-95-10.79-95-10.79l.22,0c2.94,2.22,35.29,25.46,73.16,3.2A126.55,126.55,0,0,1,248,453Z"/><path class="cls-2" d="M248,453s-41.37-20.57-95-10.79C153,442.21,194.06,473,248,453Z"/><path class="cls-2" d="M182.35,439.57C221,439.57,248,453,248,453a105.72,105.72,0,0,1-36.94,6.75c-34.67,0-58.06-17.54-58.06-17.54a163.5,163.5,0,0,1,29.35-2.64m0-1a165.22,165.22,0,0,0-29.53,2.66l-2.25.41L152.4,443c.24.18,24.06,17.74,58.66,17.74a107.1,107.1,0,0,0,37.29-6.81l2.17-.81-2.07-1c-.28-.13-27.66-13.53-66.1-13.53Z"/><path class="cls-2" d="M248,453l-.72.26c-12.81-4.45-50.18-15.48-93.61-10.58l-.67-.47C206.63,432.43,248,453,248,453Z"/><path class="cls-2" d="M183.1,440.57a171,171,0,0,1,39.41,4.87,229.64,229.64,0,0,0-39.41-4.87m-.76-1A163.32,163.32,0,0,0,153,442.21l.67.47a198.34,198.34,0,0,1,22.22-1.23,225.73,225.73,0,0,1,71.39,11.81L248,453s-27-13.43-65.66-13.43Z"/><path class="cls-2" d="M248,453c-53.94,20-95-10.79-95-10.79l.22,0c2.94,2.22,35.29,25.46,73.16,3.2A126.55,126.55,0,0,1,248,453Z"/><path class="cls-2" d="M226.52,446.44a140.53,140.53,0,0,1,18.82,6.45,104.57,104.57,0,0,1-34.27,5.86,103.44,103.44,0,0,1-25.29-3.17,65.62,65.62,0,0,0,6.82.36,66.86,66.86,0,0,0,33.92-9.5m-73.3-4.27-.22,0s23.39,17.54,58.07,17.54A105.7,105.7,0,0,0,248,453a126.55,126.55,0,0,0-21.62-7.63,65.86,65.86,0,0,1-33.78,9.57,69.31,69.31,0,0,1-39.38-12.77Z"/><path class="cls-1" d="M248,453s-41.37-20.57-95-10.79C153,442.21,194.06,473,248,453Z"/><path class="cls-4" d="M248,453l-.72.26c-12.81-4.45-50.18-15.48-93.61-10.58l-.67-.47C206.63,432.43,248,453,248,453Z"/><path class="cls-2" d="M248,453c-53.94,20-95-10.79-95-10.79l.22,0c2.94,2.22,35.29,25.46,73.16,3.2A126.55,126.55,0,0,1,248,453Z"/><path class="cls-5" d="M268.06,434.48c1.92,1.55,5.51,3.26,12,3.42,4.85.13,11.31-.61,19.91-2.9,16.27-4.34,26.66-16,32.76-25.83a77,77,0,0,0,6.12-12.07C336.58,399,301.77,427.42,268.06,434.48Z"/><path class="cls-2" d="M250,452s86,6,89-55c0,0-49,41-88,39Z"/><path class="cls-2" d="M339,397c-2.51,51-63,55.16-82.78,55.16-3.9,0-6.22-.16-6.22-.16l1-16c.93.05,1.86.07,2.8.07C292.3,436.07,339,397,339,397m1.11-2.23-1.75,1.46c-.47.39-46.87,38.84-84.56,38.84-.94,0-1.84,0-2.75-.07l-1-.05-.06,1-1,16-.06,1,1,.07c.1,0,2.4.16,6.29.16,10.33,0,30.32-1.11,48.26-8.54C327,435.31,338.9,419.3,340,397.05l.11-2.28Z"/><path class="cls-2" d="M268.06,434.48c1.92,1.55,5.51,3.26,12,3.42,4.85.13,11.31-.61,19.91-2.9,16.27-4.34,26.66-16,32.76-25.83a77,77,0,0,0,6.12-12.07C336.58,399,301.77,427.42,268.06,434.48Z"/><path class="cls-2" d="M336.39,400.36a77.09,77.09,0,0,1-4.48,8.28c-5.73,9.2-16,21.07-32.17,25.39a73.89,73.89,0,0,1-18.57,2.88h-1.06a22.22,22.22,0,0,1-9.48-2c28-6.66,56.42-27.34,65.76-34.57m2.49-3.26c-2.3,1.9-37.11,30.32-70.82,37.38,1.92,1.55,5.51,3.26,12,3.42h1.08A74.6,74.6,0,0,0,300,435c16.27-4.34,26.66-16,32.76-25.83a77,77,0,0,0,6.12-12.07Z"/><path class="cls-1" d="M250,452s86,6,89-55c0,0-49,41-88,39Z"/><path class="cls-4" d="M268.06,434.48c1.92,1.55,5.51,3.26,12,3.42,4.85.13,11.31-.61,19.91-2.9,16.27-4.34,26.66-16,32.76-25.83a77,77,0,0,0,6.12-12.07C336.58,399,301.77,427.42,268.06,434.48Z"/><path class="cls-6" d="M252,452c27.18,19.41,55.65,22,55.65,22-.44-.44-.89-.87-1.35-1.3a128.07,128.07,0,0,1-51.46-20.41C253,452.07,252,452,252,452Z"/><path class="cls-2" d="M252,452s36.24,2.59,55.65,22C307.65,474,279.18,471.41,252,452Z"/><path class="cls-2" d="M252,452s36.24,2.59,55.65,22c0,0-28.47-2.59-55.65-22m-3.47-1.25,2.89,2.06C278.5,472.16,307.27,475,307.56,475l2.75.25-2-2C288.9,453.84,252.44,451,252.07,451l-3.54-.25Z"/><path class="cls-2" d="M252,452c27.18,19.41,55.65,22,55.65,22-.44-.44-.89-.87-1.35-1.3a128.07,128.07,0,0,1-51.46-20.41C253,452.07,252,452,252,452Z"/><path class="cls-2" d="M252,452c27.18,19.41,55.65,22,55.65,22-.44-.44-.89-.87-1.35-1.3a128.07,128.07,0,0,1-51.46-20.41C253,452.07,252,452,252,452Z"/><path class="cls-1" d="M252,452s36.24,2.59,55.65,22C307.65,474,279.18,471.41,252,452Z"/><path class="cls-2" d="M252,452c27.18,19.41,55.65,22,55.65,22-.44-.44-.89-.87-1.35-1.3a128.07,128.07,0,0,1-51.46-20.41C253,452.07,252,452,252,452Z"/><path class="cls-5" d="M252,453l.72.26c12.81-4.45,50.18-15.48,93.61-10.58l.67-.47C293.37,432.43,252,453,252,453Z"/><path class="cls-6" d="M252,453c53.94,20,95-10.79,95-10.79l-.22,0c-2.94,2.22-35.29,25.46-73.16,3.2A126.55,126.55,0,0,0,252,453Z"/><path class="cls-2" d="M252,453s41.37-20.57,95-10.79C347,442.21,305.94,473,252,453Z"/><path class="cls-2" d="M317.65,439.57A163.5,163.5,0,0,1,347,442.21s-23.39,17.54-58.06,17.54A105.72,105.72,0,0,1,252,453s27-13.43,65.65-13.43m0-1h0c-38.44,0-65.82,13.4-66.1,13.53l-2.07,1,2.17.81a107.1,107.1,0,0,0,37.29,6.81c34.6,0,58.42-17.56,58.66-17.74l1.83-1.37-2.25-.41a165.11,165.11,0,0,0-29.52-2.66Z"/><path class="cls-2" d="M252,453l.72.26c12.81-4.45,50.18-15.48,93.61-10.58l.67-.47C293.37,432.43,252,453,252,453Z"/><path class="cls-2" d="M316.89,440.57a230.21,230.21,0,0,0-39.37,4.86,170.75,170.75,0,0,1,39.37-4.86m.77-1C279,439.57,252,453,252,453l.72.26a225.73,225.73,0,0,1,71.39-11.81,198.34,198.34,0,0,1,22.22,1.23l.67-.47a163.32,163.32,0,0,0-29.34-2.64Z"/><path class="cls-2" d="M252,453c53.94,20,95-10.79,95-10.79l-.22,0c-2.94,2.22-35.29,25.46-73.16,3.2A126.55,126.55,0,0,0,252,453Z"/><path class="cls-2" d="M273.48,446.44a66.86,66.86,0,0,0,33.92,9.5,63.16,63.16,0,0,0,6.84-.37,103,103,0,0,1-25.31,3.18,104.57,104.57,0,0,1-34.27-5.86,140,140,0,0,1,18.82-6.45m73.3-4.27a69.31,69.31,0,0,1-39.38,12.77,65.86,65.86,0,0,1-33.78-9.57A126.55,126.55,0,0,0,252,453a105.7,105.7,0,0,0,36.93,6.75c34.68,0,58.07-17.54,58.07-17.54l-.22,0Z"/><path class="cls-1" d="M252,453s41.37-20.57,95-10.79C347,442.21,305.94,473,252,453Z"/><path class="cls-4" d="M252,453l.72.26c12.81-4.45,50.18-15.48,93.61-10.58l.67-.47C293.37,432.43,252,453,252,453Z"/><path class="cls-2" d="M252,453c53.94,20,95-10.79,95-10.79l-.22,0c-2.94,2.22-35.29,25.46-73.16,3.2A126.55,126.55,0,0,0,252,453Z"/><path class="cls-1" d="M250,479.7a2.37,2.37,0,0,1-1.71-.71L220,450.71a2.41,2.41,0,0,1,0-3.42L248.29,419a2.41,2.41,0,0,1,3.42,0L280,447.29a2.41,2.41,0,0,1,0,3.42L251.71,479A2.37,2.37,0,0,1,250,479.7Z"/><path class="cls-7" d="M250,418.8a1.93,1.93,0,0,1,1.36.56l28.28,28.28a1.93,1.93,0,0,1,0,2.72l-28.28,28.28a1.93,1.93,0,0,1-2.72,0l-28.28-28.28a1.93,1.93,0,0,1,0-2.72l28.28-28.28a1.93,1.93,0,0,1,1.36-.56m0-1a2.91,2.91,0,0,0-2.07.85l-28.28,28.28a2.95,2.95,0,0,0,0,4.14l28.28,28.28a2.95,2.95,0,0,0,4.14,0l28.28-28.28a2.95,2.95,0,0,0,0-4.14l-28.28-28.28a2.91,2.91,0,0,0-2.07-.85Z"/><path class="cls-8" d="M279.64,450.36l-28.28,28.28a1.93,1.93,0,0,1-2.72,0l-28.28-28.28a1.93,1.93,0,0,1,0-2.72l1.58-1.58c9.51,6.83,31.62,18.26,56.25.13l1.45,1.45A1.93,1.93,0,0,1,279.64,450.36Z"/><rect class="cls-7" x="234.44" y="433.44" width="31.11" height="31.11" rx="1.93" transform="translate(-244.27 308.29) rotate(-45)"/><rect class="cls-9" x="235.39" y="434.39" width="29.23" height="29.23" rx="1.93" transform="translate(-244.27 308.29) rotate(-45)"/><path class="cls-7" d="M231.5,457.5c2.31,2,4.49,4.18,6.68,6.32s4.3,4.37,6.32,6.68c-2.31-2-4.49-4.18-6.68-6.32S233.52,459.81,231.5,457.5Z"/><path class="cls-10" d="M232,449c2.69-3,5.51-5.82,8.32-8.68S246,434.69,249,432c-2.69,3-5.51,5.82-8.32,8.68S235,446.31,232,449Z"/><path class="cls-10" d="M250,468c2.69-3,5.51-5.82,8.32-8.68S264,453.69,267,451c-2.69,3-5.51,5.82-8.32,8.68S253,465.31,250,468Z"/><path class="cls-11" d="M232,449s18-1,18,18c0,0,0-18,17-18,0,0-17,0-17-17C250,432,250,449,232,449Z"/><path class="cls-7" d="M255.5,427.5c2.31,2,4.49,4.18,6.68,6.32s4.3,4.37,6.32,6.68c-2.31-2-4.49-4.18-6.68-6.32S257.52,429.81,255.5,427.5Z"/><path class="cls-12" d="M250,464.5A214.49,214.49,0,0,1,98.33,98.33,214.49,214.49,0,1,1,401.67,401.67,213.07,213.07,0,0,1,250,464.5Zm0-400C147.71,64.5,64.5,147.71,64.5,250S147.71,435.5,250,435.5,435.5,352.29,435.5,250,352.29,64.5,250,64.5Z"/><path class="cls-12" d="M250,464.5A214.49,214.49,0,0,1,98.33,98.33,214.49,214.49,0,1,1,401.67,401.67,213.07,213.07,0,0,1,250,464.5Zm0-424A208.8,208.8,0,1,0,331.55,57,208.29,208.29,0,0,0,250,40.5Zm0,400C145,440.5,59.5,355,59.5,250S145,59.5,250,59.5,440.5,145,440.5,250,355,440.5,250,440.5Zm0-376C147.71,64.5,64.5,147.71,64.5,250S147.71,435.5,250,435.5,435.5,352.29,435.5,250,352.29,64.5,250,64.5Z"/><path class="cls-12" d="M250,452C138.62,452,48,361.38,48,250S138.62,48,250,48s202,90.62,202,202S361.38,452,250,452Zm0-387.5C147.71,64.5,64.5,147.71,64.5,250S147.71,435.5,250,435.5,435.5,352.29,435.5,250,352.29,64.5,250,64.5Z"/><path class="cls-12" d="M250,452C138.62,452,48,361.38,48,250S138.62,48,250,48s202,90.62,202,202S361.38,452,250,452Zm0-399a196.38,196.38,0,1,0,76.68,15.48A195.76,195.76,0,0,0,250,53Zm0,387.5C145,440.5,59.5,355,59.5,250S145,59.5,250,59.5,440.5,145,440.5,250,355,440.5,250,440.5Zm0-376C147.71,64.5,64.5,147.71,64.5,250S147.71,435.5,250,435.5,435.5,352.29,435.5,250,352.29,64.5,250,64.5Z"/><path class="cls-12" d="M250,452A202,202,0,0,1,48.07,255.21l4-.1C54.88,360.47,141.82,443,250,443s195.12-82.53,197.93-187.89l4,.1A202,202,0,0,1,250,452ZM447.93,244.89C445.12,139.53,358.18,57,250,57S54.88,139.53,52.07,244.89l-4-.1a202,202,0,0,1,403.86,0Z"/><path class="cls-12" d="M250,452A202,202,0,0,1,48.07,255.21l4-.1C54.88,360.47,141.82,443,250,443s195.12-82.53,197.93-187.89l4,.1A202,202,0,0,1,250,452ZM447.93,244.89C445.12,139.53,358.18,57,250,57S54.88,139.53,52.07,244.89l-4-.1a202,202,0,0,1,403.86,0Z"/><path class="cls-12" d="M257.65,447.85C362.71,443.74,445,356.83,445,250S362.71,56.26,257.65,52.15l.16-4a202,202,0,0,1,0,403.7Zm-15.46,4a202,202,0,0,1,0-403.7l.16,4C137.29,56.26,55,143.17,55,250s82.29,193.74,187.35,197.85Z"/><path class="cls-12" d="M257.65,447.85C362.71,443.74,445,356.83,445,250S362.71,56.26,257.65,52.15l.16-4a202,202,0,0,1,0,403.7Zm-15.46,4a202,202,0,0,1,0-403.7l.16,4C137.29,56.26,55,143.17,55,250s82.29,193.74,187.35,197.85Z"/><path class="cls-12" d="M250,458.12c-107.74,0-196.35-86.76-201.74-197.51l4-.2C57.72,365.6,144.58,448,250,448s192.28-82.4,197.74-187.59l4,.2C446.35,371.36,357.74,458.12,250,458.12ZM447.74,239.59C442.28,134.4,355.42,52,250,52S57.72,134.4,52.26,239.59l-4-.2C53.65,128.64,142.26,41.88,250,41.88s196.35,86.76,201.74,197.51Z"/><path class="cls-12" d="M250,458.12c-107.74,0-196.35-86.76-201.74-197.51l4-.2C57.72,365.6,144.58,448,250,448s192.28-82.4,197.74-187.59l4,.2C446.35,371.36,357.74,458.12,250,458.12Zm-31.18-7.53a193.4,193.4,0,0,0,62.36,0,202.9,202.9,0,0,1-62.36,0Zm228.92-211C442.28,134.4,355.42,52,250,52S57.72,134.4,52.26,239.59l-4-.2C53.65,128.64,142.26,41.88,250,41.88s196.35,86.76,201.74,197.51ZM250,47a203.19,203.19,0,0,1,31.18,2.41,193.4,193.4,0,0,0-62.36,0A203.19,203.19,0,0,1,250,47Z"/><path class="cls-12" d="M243.78,454.16c-19.23,0-82.17-4.11-84.78-57.06l-.22-4.57,3.5,2.94c.47.38,46.6,38.6,83.92,38.6.92,0,1.8,0,2.7-.07l2-.1,1.25,20-2,.14C250,454,247.7,454.16,243.78,454.16Z"/><path class="cls-12" d="M243.78,455.16c-10.47,0-30.77-1.13-49-8.69-23.25-9.64-35.61-26.23-36.75-49.32l-.33-6.85,5.25,4.4c.46.38,46.34,38.37,83.28,38.37.89,0,1.76,0,2.65-.07l3-.15,1.37,21.94-3,.2C249.57,455,247.31,455.16,243.78,455.16ZM163.4,401.48c5.8,45.09,62.63,48.68,80.38,48.68,1.68,0,3.07,0,4.1-.06l-.75-12h-.93C213.26,438.07,175.28,410.72,163.4,401.48Z"/><path class="cls-12" d="M218.83,439.92a77.17,77.17,0,0,1-19.34-3c-17.16-4.57-27.93-17.05-34-26.7a79.37,79.37,0,0,1-6.28-12.39l3.13-2.28c1.48,1.22,36.56,30,70,37l4.13.87L233.2,436c-2.07,1.66-6,3.68-13.24,3.86Z"/><path class="cls-12" d="M218.83,439.91a77,77,0,0,1-19.34-3c-17.16-4.57-27.93-17.05-34-26.7a79.37,79.37,0,0,1-6.28-12.39l3.13-2.28c1.48,1.22,36.56,30,70,37l4.13.87L233.2,436c-2.07,1.66-6,3.68-13.24,3.86Zm-49-32.33c5.54,8.9,15.41,20.37,31,24.52a72.23,72.23,0,0,0,18.06,2.81h1c.58,0,1.15,0,1.69-.08-20.38-6.47-40-18.94-51.89-27.49C169.68,407.41,169.73,407.5,169.79,407.58Z"/><path class="cls-12" d="M243.78,454.16c-19.23,0-82.17-4.11-84.78-57.06l-.22-4.57,3.5,2.94c.47.38,46.6,38.6,83.92,38.6.92,0,1.8,0,2.7-.07l2-.1,1.25,20-2,.14C250,454,247.7,454.16,243.78,454.16Z"/><path class="cls-12" d="M243.78,455.16c-10.47,0-30.77-1.13-49-8.69-23.25-9.64-35.61-26.23-36.75-49.32l-.33-6.85,5.25,4.4c.46.38,46.34,38.37,83.28,38.37.89,0,1.76,0,2.65-.07l3-.15,1.37,21.94-3,.2C249.57,455,247.31,455.16,243.78,455.16ZM163.4,401.48c5.8,45.09,62.63,48.68,80.38,48.68,1.68,0,3.07,0,4.1-.06l-.75-12h-.93C213.26,438.07,175.28,410.72,163.4,401.48Z"/><path class="cls-12" d="M218.83,439.92a77.17,77.17,0,0,1-19.34-3c-17.16-4.57-27.93-17.05-34-26.7a79.37,79.37,0,0,1-6.28-12.39l3.13-2.28c1.48,1.22,36.56,30,70,37l4.13.87L233.2,436c-2.07,1.66-6,3.68-13.24,3.86Z"/><path class="cls-12" d="M218.83,439.91a77,77,0,0,1-19.34-3c-17.16-4.57-27.93-17.05-34-26.7a79.37,79.37,0,0,1-6.28-12.39l3.13-2.28c1.48,1.22,36.56,30,70,37l4.13.87L233.2,436c-2.07,1.66-6,3.68-13.24,3.86Zm-49-32.33c5.54,8.9,15.41,20.37,31,24.52a72.23,72.23,0,0,0,18.06,2.81h1c.58,0,1.15,0,1.69-.08-20.38-6.47-40-18.94-51.89-27.49C169.68,407.41,169.73,407.5,169.79,407.58Z"/><path class="cls-12" d="M243.78,454.16c-19.23,0-82.17-4.11-84.78-57.06l-.22-4.57,3.5,2.94c.47.38,46.6,38.6,83.92,38.6.92,0,1.8,0,2.7-.07l2-.1,1.25,20-2,.14C250,454,247.7,454.16,243.78,454.16Z"/><path class="cls-12" d="M243.78,455.16c-10.47,0-30.77-1.13-49-8.69-23.25-9.64-35.61-26.23-36.75-49.32l-.33-6.85,5.25,4.4c.46.38,46.34,38.37,83.28,38.37.89,0,1.76,0,2.65-.07l3-.15,1.37,21.94-3,.2C249.57,455,247.31,455.16,243.78,455.16ZM163.4,401.48c5.8,45.09,62.63,48.68,80.38,48.68,1.68,0,3.07,0,4.1-.06l-.75-12h-.93C213.26,438.07,175.28,410.72,163.4,401.48Z"/><path class="cls-12" d="M218.83,439.92a77.17,77.17,0,0,1-19.34-3c-17.16-4.57-27.93-17.05-34-26.7a79.37,79.37,0,0,1-6.28-12.39l3.13-2.28c1.48,1.22,36.56,30,70,37l4.13.87L233.2,436c-2.07,1.66-6,3.68-13.24,3.86Z"/><path class="cls-12" d="M218.83,439.91a77,77,0,0,1-19.34-3c-17.16-4.57-27.93-17.05-34-26.7a79.37,79.37,0,0,1-6.28-12.39l3.13-2.28c1.48,1.22,36.56,30,70,37l4.13.87L233.2,436c-2.07,1.66-6,3.68-13.24,3.86Zm-49-32.33c5.54,8.9,15.41,20.37,31,24.52a72.23,72.23,0,0,0,18.06,2.81h1c.58,0,1.15,0,1.69-.08-20.38-6.47-40-18.94-51.89-27.49C169.68,407.41,169.73,407.5,169.79,407.58Z"/><path class="cls-12" d="M243.78,454.16c-19.23,0-82.17-4.11-84.78-57.06l-.22-4.57,3.5,2.94c.47.38,46.6,38.6,83.92,38.6.92,0,1.8,0,2.7-.07l2-.1,1.25,20-2,.14C250,454,247.7,454.16,243.78,454.16Z"/><path class="cls-12" d="M243.78,455.16c-10.47,0-30.77-1.13-49-8.69-23.25-9.64-35.61-26.23-36.75-49.32l-.33-6.85,5.25,4.4c.46.38,46.34,38.37,83.28,38.37.89,0,1.76,0,2.65-.07l3-.15,1.37,21.94-3,.2C249.57,455,247.31,455.16,243.78,455.16ZM163.4,401.48c5.8,45.09,62.63,48.68,80.38,48.68,1.68,0,3.07,0,4.1-.06l-.75-12h-.93C213.26,438.07,175.28,410.72,163.4,401.48Z"/><path class="cls-12" d="M218.83,439.92a77.17,77.17,0,0,1-19.34-3c-17.16-4.57-27.93-17.05-34-26.7a79.37,79.37,0,0,1-6.28-12.39l3.13-2.28c1.48,1.22,36.56,30,70,37l4.13.87L233.2,436c-2.07,1.66-6,3.68-13.24,3.86Z"/><path class="cls-12" d="M218.83,439.91a77,77,0,0,1-19.34-3c-17.16-4.57-27.93-17.05-34-26.7a79.37,79.37,0,0,1-6.28-12.39l3.13-2.28c1.48,1.22,36.56,30,70,37l4.13.87L233.2,436c-2.07,1.66-6,3.68-13.24,3.86Zm-49-32.33c5.54,8.9,15.41,20.37,31,24.52a72.23,72.23,0,0,0,18.06,2.81h1c.58,0,1.15,0,1.69-.08-20.38-6.47-40-18.94-51.89-27.49C169.68,407.41,169.73,407.5,169.79,407.58Z"/><path class="cls-12" d="M190.9,472.46c19.8-19.63,55.5-22.23,57-22.33l7.09-.48-5.8,4.1c-27.39,19.39-55.54,22-56.72,22.12l-5.51.48Z"/><path class="cls-12" d="M190.19,471.75c20.07-19.89,57.28-22.6,57.66-22.62l10.63-.71-8.7,6.15c-27.69,19.6-56.93,22.27-57.22,22.3l-8.25.71Zm49.45-16.53c-10.28,1.72-27.77,5.9-40.72,15.6A128.65,128.65,0,0,0,239.64,455.22Z"/><path class="cls-12" d="M190.89,472.46c.46-.46.93-.9,1.41-1.34l.46-.43.62-.09a126.57,126.57,0,0,0,50.7-19.86l.41-.27.48-.06c1.85-.21,2.91-.28,2.95-.28l7-.45-5.76,4.07c-27.39,19.39-55.54,22-56.73,22.12l-5.5.48Z"/><path class="cls-12" d="M190.89,472.46c.46-.46.93-.9,1.41-1.34l.46-.43.62-.09a126.57,126.57,0,0,0,50.7-19.86l.41-.27.48-.06c1.85-.21,2.91-.28,2.95-.28l7-.45-5.76,4.07c-27.39,19.39-55.54,22-56.72,22.12l-5.5.48Z"/><path class="cls-12" d="M190.9,472.46c19.8-19.63,55.5-22.23,57-22.33l7.09-.48-5.8,4.1c-27.39,19.39-55.54,22-56.72,22.12l-5.51.48Z"/><path class="cls-12" d="M190.19,471.75c20.07-19.89,57.28-22.6,57.66-22.62l10.63-.71-8.7,6.15c-27.69,19.6-56.93,22.27-57.22,22.3l-8.25.71Zm49.45-16.53c-10.28,1.72-27.77,5.9-40.72,15.6A128.65,128.65,0,0,0,239.64,455.22Z"/><path class="cls-12" d="M190.89,472.46c.46-.46.93-.9,1.41-1.34l.46-.43.62-.09a126.57,126.57,0,0,0,50.7-19.86l.41-.27.48-.06c1.85-.21,2.91-.28,2.95-.28l7-.45-5.76,4.07c-27.39,19.39-55.54,22-56.73,22.12l-5.5.48Z"/><path class="cls-12" d="M190.89,472.46c.46-.46.93-.9,1.41-1.34l.46-.43.62-.09a126.57,126.57,0,0,0,50.7-19.86l.41-.27.48-.06c1.85-.21,2.91-.28,2.95-.28l7-.45-5.76,4.07c-27.39,19.39-55.54,22-56.72,22.12l-5.5.48Z"/><path class="cls-12" d="M190.9,472.46c19.8-19.63,55.5-22.23,57-22.33l7.09-.48-5.8,4.1c-27.39,19.39-55.54,22-56.72,22.12l-5.51.48Z"/><path class="cls-12" d="M190.19,471.75c20.07-19.89,57.28-22.6,57.66-22.62l10.63-.71-8.7,6.15c-27.69,19.6-56.93,22.27-57.22,22.3l-8.25.71Zm49.45-16.53c-10.28,1.72-27.77,5.9-40.72,15.6A128.65,128.65,0,0,0,239.64,455.22Z"/><path class="cls-12" d="M190.89,472.46c.46-.46.93-.9,1.41-1.34l.46-.43.62-.09a126.57,126.57,0,0,0,50.7-19.86l.41-.27.48-.06c1.85-.21,2.91-.28,2.95-.28l7-.45-5.76,4.07c-27.39,19.39-55.54,22-56.73,22.12l-5.5.48Z"/><path class="cls-12" d="M190.89,472.46c.46-.46.93-.9,1.41-1.34l.46-.43.62-.09a126.57,126.57,0,0,0,50.7-19.86l.41-.27.48-.06c1.85-.21,2.91-.28,2.95-.28l7-.45-5.76,4.07c-27.39,19.39-55.54,22-56.72,22.12l-5.5.48Z"/><path class="cls-12" d="M190.9,472.46c19.8-19.63,55.5-22.23,57-22.33l7.09-.48-5.8,4.1c-27.39,19.39-55.54,22-56.72,22.12l-5.51.48Z"/><path class="cls-12" d="M190.19,471.75c20.07-19.89,57.28-22.6,57.66-22.62l10.63-.71-8.7,6.15c-27.69,19.6-56.93,22.27-57.22,22.3l-8.25.71Zm49.45-16.53c-10.28,1.72-27.77,5.9-40.72,15.6A128.65,128.65,0,0,0,239.64,455.22Z"/><path class="cls-12" d="M190.89,472.46c.46-.46.93-.9,1.41-1.34l.46-.43.62-.09a126.57,126.57,0,0,0,50.7-19.86l.41-.27.48-.06c1.85-.21,2.91-.28,2.95-.28l7-.45-5.76,4.07c-27.39,19.39-55.54,22-56.73,22.12l-5.5.48Z"/><path class="cls-12" d="M190.89,472.46c.46-.46.93-.9,1.41-1.34l.46-.43.62-.09a126.57,126.57,0,0,0,50.7-19.86l.41-.27.48-.06c1.85-.21,2.91-.28,2.95-.28l7-.45-5.76,4.07c-27.39,19.39-55.54,22-56.72,22.12l-5.5.48Z"/><path class="cls-12" d="M211.06,461.75c-34.93,0-58.28-17.2-59.26-17.94l-3.66-2.74,4.5-.82a165.4,165.4,0,0,1,29.71-2.68c38.67,0,65.42,13.08,66.54,13.64l4.14,2.06-4.33,1.61a108.12,108.12,0,0,1-37.64,6.87Z"/><path class="cls-12" d="M211.06,462.75c-35.33,0-59.62-18-59.86-18.14l-5.49-4.12,6.75-1.23a167.4,167.4,0,0,1,29.89-2.69c38.75,0,66.7,13.6,67,13.74l6.22,3.09L249,455.81A108.88,108.88,0,0,1,211.06,462.75Zm-52.63-19.41a105.4,105.4,0,0,0,52.63,14.41,103.05,103.05,0,0,0,31.42-5,166.41,166.41,0,0,0-60.13-11.22A163,163,0,0,0,158.43,443.34Z"/><path class="cls-12" d="M246.62,455.15a223.89,223.89,0,0,0-70.74-11.7,196.43,196.43,0,0,0-22,1.22l-.73.08-.62-.42-.73-.51-3.71-2.75,4.54-.83a166.2,166.2,0,0,1,29.7-2.67c38.68,0,65.43,13.08,66.55,13.64l4.12,2.05-4.31,1.61-.79.29-.64.21Z"/><path class="cls-12" d="M246.62,455.15a223.93,223.93,0,0,0-70.73-11.7,196.47,196.47,0,0,0-22,1.22l-.73.08-.62-.42-.73-.51-3.71-2.75,4.54-.83a166,166,0,0,1,29.7-2.67c38.68,0,65.43,13.08,66.55,13.64l4.12,2.05-4.31,1.61-.78.29-.65.21Z"/><path class="cls-12" d="M211.07,461.75c-34.94,0-58.29-17.21-59.27-17.94l-3.88-2.91,4.8-.67.22,0,.82-.12.66.5a67.51,67.51,0,0,0,38.18,12.37,64.2,64.2,0,0,0,32.77-9.29l.72-.43.81.22a127.2,127.2,0,0,1,22,7.77l4.14,2.06-4.33,1.61A108.07,108.07,0,0,1,211.07,461.75Z"/><path class="cls-12" d="M211.07,461.75c-34.94,0-58.29-17.21-59.27-17.94l-3.88-2.91,4.81-.67.21,0,.82-.12.66.5a67.51,67.51,0,0,0,38.18,12.37,64.2,64.2,0,0,0,32.77-9.29l.72-.43.81.22a127.2,127.2,0,0,1,22,7.77l4.14,2.06-4.33,1.61A108.15,108.15,0,0,1,211.07,461.75Zm-5.32-5.14c1.77.1,3.55.14,5.32.14a101.77,101.77,0,0,0,28.36-4.08c-3.25-1.22-7.52-2.67-12.63-4.08A71.87,71.87,0,0,1,205.75,456.61Z"/><path class="cls-12" d="M211.06,461.75c-34.93,0-58.28-17.2-59.26-17.94l-3.66-2.74,4.5-.82a165.4,165.4,0,0,1,29.71-2.68c38.67,0,65.42,13.08,66.54,13.64l4.14,2.06-4.33,1.61a108.12,108.12,0,0,1-37.64,6.87Z"/><path class="cls-12" d="M211.06,462.75c-35.33,0-59.62-18-59.86-18.14l-5.49-4.12,6.75-1.23a167.4,167.4,0,0,1,29.89-2.69c38.75,0,66.7,13.6,67,13.74l6.22,3.09L249,455.81A108.88,108.88,0,0,1,211.06,462.75Zm-52.63-19.41a105.4,105.4,0,0,0,52.63,14.41,103.05,103.05,0,0,0,31.42-5,166.41,166.41,0,0,0-60.13-11.22A163,163,0,0,0,158.43,443.34Z"/><path class="cls-12" d="M246.62,455.15a223.89,223.89,0,0,0-70.74-11.7,196.43,196.43,0,0,0-22,1.22l-.73.08-.62-.42-.73-.51-3.71-2.75,4.54-.83a166.2,166.2,0,0,1,29.7-2.67c38.68,0,65.43,13.08,66.55,13.64l4.12,2.05-4.31,1.61-.79.29-.64.21Z"/><path class="cls-12" d="M246.62,455.15a223.93,223.93,0,0,0-70.73-11.7,196.47,196.47,0,0,0-22,1.22l-.73.08-.62-.42-.73-.51-3.71-2.75,4.54-.83a166,166,0,0,1,29.7-2.67c38.68,0,65.43,13.08,66.55,13.64l4.12,2.05-4.31,1.61-.78.29-.65.21Z"/><path class="cls-12" d="M211.07,461.75c-34.94,0-58.29-17.21-59.27-17.94l-3.88-2.91,4.8-.67.22,0,.82-.12.66.5a67.51,67.51,0,0,0,38.18,12.37,64.2,64.2,0,0,0,32.77-9.29l.72-.43.81.22a127.2,127.2,0,0,1,22,7.77l4.14,2.06-4.33,1.61A108.07,108.07,0,0,1,211.07,461.75Z"/><path class="cls-12" d="M211.07,461.75c-34.94,0-58.29-17.21-59.27-17.94l-3.88-2.91,4.81-.67.21,0,.82-.12.66.5a67.51,67.51,0,0,0,38.18,12.37,64.2,64.2,0,0,0,32.77-9.29l.72-.43.81.22a127.2,127.2,0,0,1,22,7.77l4.14,2.06-4.33,1.61A108.15,108.15,0,0,1,211.07,461.75Zm-5.32-5.14c1.77.1,3.55.14,5.32.14a101.77,101.77,0,0,0,28.36-4.08c-3.25-1.22-7.52-2.67-12.63-4.08A71.87,71.87,0,0,1,205.75,456.61Z"/><path class="cls-12" d="M211.06,461.75c-34.93,0-58.28-17.2-59.26-17.94l-3.66-2.74,4.5-.82a165.4,165.4,0,0,1,29.71-2.68c38.67,0,65.42,13.08,66.54,13.64l4.14,2.06-4.33,1.61a108.12,108.12,0,0,1-37.64,6.87Z"/><path class="cls-12" d="M211.06,462.75c-35.33,0-59.62-18-59.86-18.14l-5.49-4.12,6.75-1.23a167.4,167.4,0,0,1,29.89-2.69c38.75,0,66.7,13.6,67,13.74l6.22,3.09L249,455.81A108.88,108.88,0,0,1,211.06,462.75Zm-52.63-19.41a105.4,105.4,0,0,0,52.63,14.41,103.05,103.05,0,0,0,31.42-5,166.41,166.41,0,0,0-60.13-11.22A163,163,0,0,0,158.43,443.34Z"/><path class="cls-12" d="M246.62,455.15a223.89,223.89,0,0,0-70.74-11.7,196.43,196.43,0,0,0-22,1.22l-.73.08-.62-.42-.73-.51-3.71-2.75,4.54-.83a166.2,166.2,0,0,1,29.7-2.67c38.68,0,65.43,13.08,66.55,13.64l4.12,2.05-4.31,1.61-.79.29-.64.21Z"/><path class="cls-12" d="M246.62,455.15a223.93,223.93,0,0,0-70.73-11.7,196.47,196.47,0,0,0-22,1.22l-.73.08-.62-.42-.73-.51-3.71-2.75,4.54-.83a166,166,0,0,1,29.7-2.67c38.68,0,65.43,13.08,66.55,13.64l4.12,2.05-4.31,1.61-.78.29-.65.21Z"/><path class="cls-12" d="M211.07,461.75c-34.94,0-58.29-17.21-59.27-17.94l-3.88-2.91,4.8-.67.22,0,.82-.12.66.5a67.51,67.51,0,0,0,38.18,12.37,64.2,64.2,0,0,0,32.77-9.29l.72-.43.81.22a127.2,127.2,0,0,1,22,7.77l4.14,2.06-4.33,1.61A108.07,108.07,0,0,1,211.07,461.75Z"/><path class="cls-12" d="M211.07,461.75c-34.94,0-58.29-17.21-59.27-17.94l-3.88-2.91,4.81-.67.21,0,.82-.12.66.5a67.51,67.51,0,0,0,38.18,12.37,64.2,64.2,0,0,0,32.77-9.29l.72-.43.81.22a127.2,127.2,0,0,1,22,7.77l4.14,2.06-4.33,1.61A108.15,108.15,0,0,1,211.07,461.75Zm-5.32-5.14c1.77.1,3.55.14,5.32.14a101.77,101.77,0,0,0,28.36-4.08c-3.25-1.22-7.52-2.67-12.63-4.08A71.87,71.87,0,0,1,205.75,456.61Z"/><path class="cls-12" d="M211.06,461.75c-34.93,0-58.28-17.2-59.26-17.94l-3.66-2.74,4.5-.82a165.4,165.4,0,0,1,29.71-2.68c38.67,0,65.42,13.08,66.54,13.64l4.14,2.06-4.33,1.61a108.12,108.12,0,0,1-37.64,6.87Z"/><path class="cls-12" d="M211.06,462.75c-35.33,0-59.62-18-59.86-18.14l-5.49-4.12,6.75-1.23a167.4,167.4,0,0,1,29.89-2.69c38.75,0,66.7,13.6,67,13.74l6.22,3.09L249,455.81A108.88,108.88,0,0,1,211.06,462.75Zm-52.63-19.41a105.4,105.4,0,0,0,52.63,14.41,103.05,103.05,0,0,0,31.42-5,166.41,166.41,0,0,0-60.13-11.22A163,163,0,0,0,158.43,443.34Z"/><path class="cls-12" d="M246.62,455.15a223.89,223.89,0,0,0-70.74-11.7,196.43,196.43,0,0,0-22,1.22l-.73.08-.62-.42-.73-.51-3.71-2.75,4.54-.83a166.2,166.2,0,0,1,29.7-2.67c38.68,0,65.43,13.08,66.55,13.64l4.12,2.05-4.31,1.61-.79.29-.64.21Z"/><path class="cls-12" d="M246.62,455.15a223.93,223.93,0,0,0-70.73-11.7,196.47,196.47,0,0,0-22,1.22l-.73.08-.62-.42-.73-.51-3.71-2.75,4.54-.83a166,166,0,0,1,29.7-2.67c38.68,0,65.43,13.08,66.55,13.64l4.12,2.05-4.31,1.61-.78.29-.65.21Z"/><path class="cls-12" d="M211.07,461.75c-34.94,0-58.29-17.21-59.27-17.94l-3.88-2.91,4.8-.67.22,0,.82-.12.66.5a67.51,67.51,0,0,0,38.18,12.37,64.2,64.2,0,0,0,32.77-9.29l.72-.43.81.22a127.2,127.2,0,0,1,22,7.77l4.14,2.06-4.33,1.61A108.07,108.07,0,0,1,211.07,461.75Z"/><path class="cls-12" d="M211.07,461.75c-34.94,0-58.29-17.21-59.27-17.94l-3.88-2.91,4.81-.67.21,0,.82-.12.66.5a67.51,67.51,0,0,0,38.18,12.37,64.2,64.2,0,0,0,32.77-9.29l.72-.43.81.22a127.2,127.2,0,0,1,22,7.77l4.14,2.06-4.33,1.61A108.15,108.15,0,0,1,211.07,461.75Zm-5.32-5.14c1.77.1,3.55.14,5.32.14a101.77,101.77,0,0,0,28.36-4.08c-3.25-1.22-7.52-2.67-12.63-4.08A71.87,71.87,0,0,1,205.75,456.61Z"/><path class="cls-12" d="M256.22,454.16c-3.92,0-6.26-.16-6.36-.16l-2-.14,1.25-20,2,.1c.9.05,1.78.07,2.69.07h0c37.33,0,83.45-38.22,83.92-38.6l3.5-2.93L341,397.1c-2.61,52.94-65.54,57.06-84.78,57.06Z"/><path class="cls-12" d="M256.22,455.16c-3.53,0-5.79-.13-6.4-.16l-3-.21,1.37-21.94,3,.15c.89.05,1.76.07,2.65.07,36.94,0,82.82-38,83.28-38.37l5.25-4.4-.33,6.85c-1.14,23.09-13.5,39.68-36.75,49.32C287,454,266.69,455.16,256.22,455.16Zm-4.1-5.06c1,0,2.42.06,4.1.06,17.75,0,74.58-3.59,80.38-48.68-11.88,9.24-49.86,36.59-82.8,36.59h-.92Z"/><path class="cls-12" d="M281.17,439.92l-1.13,0c-7.2-.18-11.17-2.2-13.24-3.86l-3.28-2.65,4.13-.87c33.4-7,68.48-35.74,70-37l3.13,2.28a79.81,79.81,0,0,1-6.28,12.39c-6,9.65-16.79,22.13-33.94,26.7a77.31,77.31,0,0,1-19.35,3Z"/><path class="cls-12" d="M281.17,439.91H280c-7.2-.18-11.17-2.2-13.24-3.86l-3.28-2.65,4.13-.87c33.4-7,68.48-35.74,70-37l3.13,2.28a79.37,79.37,0,0,1-6.28,12.39c-6,9.65-16.79,22.13-33.94,26.7A77.17,77.17,0,0,1,281.17,439.91Zm-2.7-5.09c.55,0,1.11.07,1.69.08h1a72.16,72.16,0,0,0,18.06-2.81c15.57-4.15,25.44-15.62,31-24.52.06-.08.11-.17.16-.25C318.43,415.88,298.86,428.35,278.47,434.82Z"/><path class="cls-12" d="M256.22,454.16c-3.92,0-6.26-.16-6.36-.16l-2-.14,1.25-20,2,.1c.9.05,1.78.07,2.69.07h0c37.33,0,83.45-38.22,83.92-38.6l3.5-2.93L341,397.1c-2.61,52.94-65.54,57.06-84.78,57.06Z"/><path class="cls-12" d="M256.22,455.16c-3.53,0-5.79-.13-6.4-.16l-3-.21,1.37-21.94,3,.15c.89.05,1.76.07,2.65.07,36.94,0,82.82-38,83.28-38.37l5.25-4.4-.33,6.85c-1.14,23.09-13.5,39.68-36.75,49.32C287,454,266.69,455.16,256.22,455.16Zm-4.1-5.06c1,0,2.42.06,4.1.06,17.75,0,74.58-3.59,80.38-48.68-11.88,9.24-49.86,36.59-82.8,36.59h-.92Z"/><path class="cls-12" d="M281.17,439.92l-1.13,0c-7.2-.18-11.17-2.2-13.24-3.86l-3.28-2.65,4.13-.87c33.4-7,68.48-35.74,70-37l3.13,2.28a79.81,79.81,0,0,1-6.28,12.39c-6,9.65-16.79,22.13-33.94,26.7a77.31,77.31,0,0,1-19.35,3Z"/><path class="cls-12" d="M281.17,439.91H280c-7.2-.18-11.17-2.2-13.24-3.86l-3.28-2.65,4.13-.87c33.4-7,68.48-35.74,70-37l3.13,2.28a79.37,79.37,0,0,1-6.28,12.39c-6,9.65-16.79,22.13-33.94,26.7A77.17,77.17,0,0,1,281.17,439.91Zm-2.7-5.09c.55,0,1.11.07,1.69.08h1a72.16,72.16,0,0,0,18.06-2.81c15.57-4.15,25.44-15.62,31-24.52.06-.08.11-.17.16-.25C318.43,415.88,298.86,428.35,278.47,434.82Z"/><path class="cls-12" d="M256.22,454.16c-3.92,0-6.26-.16-6.36-.16l-2-.14,1.25-20,2,.1c.9.05,1.78.07,2.69.07h0c37.33,0,83.45-38.22,83.92-38.6l3.5-2.93L341,397.1c-2.61,52.94-65.54,57.06-84.78,57.06Z"/><path class="cls-12" d="M256.22,455.16c-3.53,0-5.79-.13-6.4-.16l-3-.21,1.37-21.94,3,.15c.89.05,1.76.07,2.65.07,36.94,0,82.82-38,83.28-38.37l5.25-4.4-.33,6.85c-1.14,23.09-13.5,39.68-36.75,49.32C287,454,266.69,455.16,256.22,455.16Zm-4.1-5.06c1,0,2.42.06,4.1.06,17.75,0,74.58-3.59,80.38-48.68-11.88,9.24-49.86,36.59-82.8,36.59h-.92Z"/><path class="cls-12" d="M281.17,439.92l-1.13,0c-7.2-.18-11.17-2.2-13.24-3.86l-3.28-2.65,4.13-.87c33.4-7,68.48-35.74,70-37l3.13,2.28a79.81,79.81,0,0,1-6.28,12.39c-6,9.65-16.79,22.13-33.94,26.7a77.31,77.31,0,0,1-19.35,3Z"/><path class="cls-12" d="M281.17,439.91H280c-7.2-.18-11.17-2.2-13.24-3.86l-3.28-2.65,4.13-.87c33.4-7,68.48-35.74,70-37l3.13,2.28a79.37,79.37,0,0,1-6.28,12.39c-6,9.65-16.79,22.13-33.94,26.7A77.17,77.17,0,0,1,281.17,439.91Zm-2.7-5.09c.55,0,1.11.07,1.69.08h1a72.16,72.16,0,0,0,18.06-2.81c15.57-4.15,25.44-15.62,31-24.52.06-.08.11-.17.16-.25C318.43,415.88,298.86,428.35,278.47,434.82Z"/><path class="cls-12" d="M256.22,454.16c-3.92,0-6.26-.16-6.36-.16l-2-.14,1.25-20,2,.1c.9.05,1.78.07,2.69.07h0c37.33,0,83.45-38.22,83.92-38.6l3.5-2.93L341,397.1c-2.61,52.94-65.54,57.06-84.78,57.06Z"/><path class="cls-12" d="M256.22,455.16c-3.53,0-5.79-.13-6.4-.16l-3-.21,1.37-21.94,3,.15c.89.05,1.76.07,2.65.07,36.94,0,82.82-38,83.28-38.37l5.25-4.4-.33,6.85c-1.14,23.09-13.5,39.68-36.75,49.32C287,454,266.69,455.16,256.22,455.16Zm-4.1-5.06c1,0,2.42.06,4.1.06,17.75,0,74.58-3.59,80.38-48.68-11.88,9.24-49.86,36.59-82.8,36.59h-.92Z"/><path class="cls-12" d="M281.17,439.92l-1.13,0c-7.2-.18-11.17-2.2-13.24-3.86l-3.28-2.65,4.13-.87c33.4-7,68.48-35.74,70-37l3.13,2.28a79.81,79.81,0,0,1-6.28,12.39c-6,9.65-16.79,22.13-33.94,26.7a77.31,77.31,0,0,1-19.35,3Z"/><path class="cls-12" d="M281.17,439.91H280c-7.2-.18-11.17-2.2-13.24-3.86l-3.28-2.65,4.13-.87c33.4-7,68.48-35.74,70-37l3.13,2.28a79.37,79.37,0,0,1-6.28,12.39c-6,9.65-16.79,22.13-33.94,26.7A77.17,77.17,0,0,1,281.17,439.91Zm-2.7-5.09c.55,0,1.11.07,1.69.08h1a72.16,72.16,0,0,0,18.06-2.81c15.57-4.15,25.44-15.62,31-24.52.06-.08.11-.17.16-.25C318.43,415.88,298.86,428.35,278.47,434.82Z"/><path class="cls-12" d="M307.47,476c-1.19-.11-29.33-2.86-56.63-22.36l-5.78-4.13,7.08.5c1.51.11,37.21,2.87,56.92,22.59l3.91,3.9Z"/><path class="cls-12" d="M307.38,477a130.47,130.47,0,0,1-57.12-22.55l-8.67-6.19,10.62.76c.37,0,37.5,2.81,57.56,22.87l5.86,5.86Zm-47-21.86a128.89,128.89,0,0,0,40.66,15.79C288.13,461.15,270.66,456.89,260.39,455.13Z"/><path class="cls-12" d="M307.47,476c-1.19-.11-29.33-2.86-56.63-22.36l-5.75-4.11,7,.48s1.1.08,2.94.3l.49.06.4.28a126.71,126.71,0,0,0,50.62,20.08l.62.09.46.43c.47.44.94.89,1.4,1.35l3.89,3.9Z"/><path class="cls-12" d="M307.47,476c-1.19-.11-29.33-2.86-56.63-22.36l-5.75-4.11,7,.48s1.1.08,2.94.3l.49.06.4.28a126.71,126.71,0,0,0,50.62,20.08l.62.09.46.43c.47.44.94.89,1.39,1.35l3.91,3.9Z"/><path class="cls-12" d="M307.47,476c-1.19-.11-29.33-2.86-56.63-22.36l-5.78-4.13,7.08.5c1.51.11,37.21,2.87,56.92,22.59l3.91,3.9Z"/><path class="cls-12" d="M307.38,477a130.47,130.47,0,0,1-57.12-22.55l-8.67-6.19,10.62.76c.37,0,37.5,2.81,57.56,22.87l5.86,5.86Zm-47-21.86a128.89,128.89,0,0,0,40.66,15.79C288.13,461.15,270.66,456.89,260.39,455.13Z"/><path class="cls-12" d="M307.47,476c-1.19-.11-29.33-2.86-56.63-22.36l-5.75-4.11,7,.48s1.1.08,2.94.3l.49.06.4.28a126.71,126.71,0,0,0,50.62,20.08l.62.09.46.43c.47.44.94.89,1.4,1.35l3.89,3.9Z"/><path class="cls-12" d="M307.47,476c-1.19-.11-29.33-2.86-56.63-22.36l-5.75-4.11,7,.48s1.1.08,2.94.3l.49.06.4.28a126.71,126.71,0,0,0,50.62,20.08l.62.09.46.43c.47.44.94.89,1.39,1.35l3.91,3.9Z"/><path class="cls-12" d="M307.47,476c-1.19-.11-29.33-2.86-56.63-22.36l-5.78-4.13,7.08.5c1.51.11,37.21,2.87,56.92,22.59l3.91,3.9Z"/><path class="cls-12" d="M307.38,477a130.47,130.47,0,0,1-57.12-22.55l-8.67-6.19,10.62.76c.37,0,37.5,2.81,57.56,22.87l5.86,5.86Zm-47-21.86a128.89,128.89,0,0,0,40.66,15.79C288.13,461.15,270.66,456.89,260.39,455.13Z"/><path class="cls-12" d="M307.47,476c-1.19-.11-29.33-2.86-56.63-22.36l-5.75-4.11,7,.48s1.1.08,2.94.3l.49.06.4.28a126.71,126.71,0,0,0,50.62,20.08l.62.09.46.43c.47.44.94.89,1.4,1.35l3.89,3.9Z"/><path class="cls-12" d="M307.47,476c-1.19-.11-29.33-2.86-56.63-22.36l-5.75-4.11,7,.48s1.1.08,2.94.3l.49.06.4.28a126.71,126.71,0,0,0,50.62,20.08l.62.09.46.43c.47.44.94.89,1.39,1.35l3.91,3.9Z"/><path class="cls-12" d="M307.47,476c-1.19-.11-29.33-2.86-56.63-22.36l-5.78-4.13,7.08.5c1.51.11,37.21,2.87,56.92,22.59l3.91,3.9Z"/><path class="cls-12" d="M307.38,477a130.47,130.47,0,0,1-57.12-22.55l-8.67-6.19,10.62.76c.37,0,37.5,2.81,57.56,22.87l5.86,5.86Zm-47-21.86a128.89,128.89,0,0,0,40.66,15.79C288.13,461.15,270.66,456.89,260.39,455.13Z"/><path class="cls-12" d="M307.47,476c-1.19-.11-29.33-2.86-56.63-22.36l-5.75-4.11,7,.48s1.1.08,2.94.3l.49.06.4.28a126.71,126.71,0,0,0,50.62,20.08l.62.09.46.43c.47.44.94.89,1.4,1.35l3.89,3.9Z"/><path class="cls-12" d="M307.47,476c-1.19-.11-29.33-2.86-56.63-22.36l-5.75-4.11,7,.48s1.1.08,2.94.3l.49.06.4.28a126.71,126.71,0,0,0,50.62,20.08l.62.09.46.43c.47.44.94.89,1.39,1.35l3.91,3.9Z"/><path class="cls-12" d="M288.94,461.75a108.17,108.17,0,0,1-37.64-6.87L247,453.27l4.14-2.06c1.12-.56,27.87-13.64,66.54-13.64a165.4,165.4,0,0,1,29.71,2.68l4.5.82-3.66,2.74C347.22,444.55,323.87,461.75,288.94,461.75Z"/><path class="cls-12" d="M288.94,462.75a108.88,108.88,0,0,1-38-6.94l-6.51-2.41,6.21-3.09c.29-.14,28.23-13.74,67-13.74a167.4,167.4,0,0,1,29.89,2.69l6.75,1.23-5.49,4.12C348.56,444.79,324.27,462.75,288.94,462.75Zm-31.42-10a103.36,103.36,0,0,0,31.42,5,105.4,105.4,0,0,0,52.63-14.41,163,163,0,0,0-23.92-1.77A166.1,166.1,0,0,0,257.52,452.79Z"/><path class="cls-12" d="M252.09,455.16l-.77-.28L247,453.27l4.1-2.06c1.12-.56,27.87-13.64,66.55-13.64a166.2,166.2,0,0,1,29.7,2.67l4.54.83-3.71,2.75-.73.51-.62.42-.73-.08a196.43,196.43,0,0,0-22-1.22,223.89,223.89,0,0,0-70.74,11.7l-.65.22Z"/><path class="cls-12" d="M252.08,455.16l-.78-.29L247,453.26l4.12-2.05c1.12-.56,27.87-13.64,66.55-13.64a166.2,166.2,0,0,1,29.7,2.67l4.54.83-3.71,2.75-.73.51-.62.42-.73-.08a196.47,196.47,0,0,0-22-1.22,223.93,223.93,0,0,0-70.73,11.7l-.65.22Z"/><path class="cls-12" d="M288.93,461.75a108.07,108.07,0,0,1-37.63-6.87L247,453.27l4.14-2.06a127.2,127.2,0,0,1,22-7.77l.81-.22.72.43a64.2,64.2,0,0,0,32.77,9.29h0a67.51,67.51,0,0,0,38.18-12.37l.66-.5.82.12.22,0,4.81.67-3.89,2.91c-1,.73-24.33,17.94-59.26,17.94Z"/><path class="cls-12" d="M288.93,461.75a108.15,108.15,0,0,1-37.63-6.87L247,453.27l4.14-2.06a127.2,127.2,0,0,1,22-7.77l.81-.22.72.43a64.2,64.2,0,0,0,32.77,9.29,67.51,67.51,0,0,0,38.18-12.37l.66-.5.82.12.22,0,4.81.67-3.89,2.91C347.22,444.54,323.87,461.75,288.93,461.75Zm-28.36-9.08a101.77,101.77,0,0,0,28.36,4.08c1.77,0,3.55,0,5.32-.14a71.87,71.87,0,0,1-21.05-8C268.08,450,263.81,451.46,260.57,452.67Z"/><path class="cls-12" d="M288.94,461.75a108.17,108.17,0,0,1-37.64-6.87L247,453.27l4.14-2.06c1.12-.56,27.87-13.64,66.54-13.64a165.4,165.4,0,0,1,29.71,2.68l4.5.82-3.66,2.74C347.22,444.55,323.87,461.75,288.94,461.75Z"/><path class="cls-12" d="M288.94,462.75a108.88,108.88,0,0,1-38-6.94l-6.51-2.41,6.21-3.09c.29-.14,28.23-13.74,67-13.74a167.4,167.4,0,0,1,29.89,2.69l6.75,1.23-5.49,4.12C348.56,444.79,324.27,462.75,288.94,462.75Zm-31.42-10a103.36,103.36,0,0,0,31.42,5,105.4,105.4,0,0,0,52.63-14.41,163,163,0,0,0-23.92-1.77A166.1,166.1,0,0,0,257.52,452.79Z"/><path class="cls-12" d="M252.09,455.16l-.77-.28L247,453.27l4.1-2.06c1.12-.56,27.87-13.64,66.55-13.64a166.2,166.2,0,0,1,29.7,2.67l4.54.83-3.71,2.75-.73.51-.62.42-.73-.08a196.43,196.43,0,0,0-22-1.22,223.89,223.89,0,0,0-70.74,11.7l-.65.22Z"/><path class="cls-12" d="M252.08,455.16l-.78-.29L247,453.26l4.12-2.05c1.12-.56,27.87-13.64,66.55-13.64a166.2,166.2,0,0,1,29.7,2.67l4.54.83-3.71,2.75-.73.51-.62.42-.73-.08a196.47,196.47,0,0,0-22-1.22,223.93,223.93,0,0,0-70.73,11.7l-.65.22Z"/><path class="cls-12" d="M288.93,461.75a108.07,108.07,0,0,1-37.63-6.87L247,453.27l4.14-2.06a127.2,127.2,0,0,1,22-7.77l.81-.22.72.43a64.2,64.2,0,0,0,32.77,9.29h0a67.51,67.51,0,0,0,38.18-12.37l.66-.5.82.12.22,0,4.81.67-3.89,2.91c-1,.73-24.33,17.94-59.26,17.94Z"/><path class="cls-12" d="M288.93,461.75a108.15,108.15,0,0,1-37.63-6.87L247,453.27l4.14-2.06a127.2,127.2,0,0,1,22-7.77l.81-.22.72.43a64.2,64.2,0,0,0,32.77,9.29,67.51,67.51,0,0,0,38.18-12.37l.66-.5.82.12.22,0,4.81.67-3.89,2.91C347.22,444.54,323.87,461.75,288.93,461.75Zm-28.36-9.08a101.77,101.77,0,0,0,28.36,4.08c1.77,0,3.55,0,5.32-.14a71.87,71.87,0,0,1-21.05-8C268.08,450,263.81,451.46,260.57,452.67Z"/><path class="cls-12" d="M288.94,461.75a108.17,108.17,0,0,1-37.64-6.87L247,453.27l4.14-2.06c1.12-.56,27.87-13.64,66.54-13.64a165.4,165.4,0,0,1,29.71,2.68l4.5.82-3.66,2.74C347.22,444.55,323.87,461.75,288.94,461.75Z"/><path class="cls-12" d="M288.94,462.75a108.88,108.88,0,0,1-38-6.94l-6.51-2.41,6.21-3.09c.29-.14,28.23-13.74,67-13.74a167.4,167.4,0,0,1,29.89,2.69l6.75,1.23-5.49,4.12C348.56,444.79,324.27,462.75,288.94,462.75Zm-31.42-10a103.36,103.36,0,0,0,31.42,5,105.4,105.4,0,0,0,52.63-14.41,163,163,0,0,0-23.92-1.77A166.1,166.1,0,0,0,257.52,452.79Z"/><path class="cls-12" d="M252.09,455.16l-.77-.28L247,453.27l4.1-2.06c1.12-.56,27.87-13.64,66.55-13.64a166.2,166.2,0,0,1,29.7,2.67l4.54.83-3.71,2.75-.73.51-.62.42-.73-.08a196.43,196.43,0,0,0-22-1.22,223.89,223.89,0,0,0-70.74,11.7l-.65.22Z"/><path class="cls-12" d="M252.08,455.16l-.78-.29L247,453.26l4.12-2.05c1.12-.56,27.87-13.64,66.55-13.64a166.2,166.2,0,0,1,29.7,2.67l4.54.83-3.71,2.75-.73.51-.62.42-.73-.08a196.47,196.47,0,0,0-22-1.22,223.93,223.93,0,0,0-70.73,11.7l-.65.22Z"/><path class="cls-12" d="M288.93,461.75a108.07,108.07,0,0,1-37.63-6.87L247,453.27l4.14-2.06a127.2,127.2,0,0,1,22-7.77l.81-.22.72.43a64.2,64.2,0,0,0,32.77,9.29h0a67.51,67.51,0,0,0,38.18-12.37l.66-.5.82.12.22,0,4.81.67-3.89,2.91c-1,.73-24.33,17.94-59.26,17.94Z"/><path class="cls-12" d="M288.93,461.75a108.15,108.15,0,0,1-37.63-6.87L247,453.27l4.14-2.06a127.2,127.2,0,0,1,22-7.77l.81-.22.72.43a64.2,64.2,0,0,0,32.77,9.29,67.51,67.51,0,0,0,38.18-12.37l.66-.5.82.12.22,0,4.81.67-3.89,2.91C347.22,444.54,323.87,461.75,288.93,461.75Zm-28.36-9.08a101.77,101.77,0,0,0,28.36,4.08c1.77,0,3.55,0,5.32-.14a71.87,71.87,0,0,1-21.05-8C268.08,450,263.81,451.46,260.57,452.67Z"/><path class="cls-12" d="M288.94,461.75a108.17,108.17,0,0,1-37.64-6.87L247,453.27l4.14-2.06c1.12-.56,27.87-13.64,66.54-13.64a165.4,165.4,0,0,1,29.71,2.68l4.5.82-3.66,2.74C347.22,444.55,323.87,461.75,288.94,461.75Z"/><path class="cls-12" d="M288.94,462.75a108.88,108.88,0,0,1-38-6.94l-6.51-2.41,6.21-3.09c.29-.14,28.23-13.74,67-13.74a167.4,167.4,0,0,1,29.89,2.69l6.75,1.23-5.49,4.12C348.56,444.79,324.27,462.75,288.94,462.75Zm-31.42-10a103.36,103.36,0,0,0,31.42,5,105.4,105.4,0,0,0,52.63-14.41,163,163,0,0,0-23.92-1.77A166.1,166.1,0,0,0,257.52,452.79Z"/><path class="cls-12" d="M252.09,455.16l-.77-.28L247,453.27l4.1-2.06c1.12-.56,27.87-13.64,66.55-13.64a166.2,166.2,0,0,1,29.7,2.67l4.54.83-3.71,2.75-.73.51-.62.42-.73-.08a196.43,196.43,0,0,0-22-1.22,223.89,223.89,0,0,0-70.74,11.7l-.65.22Z"/><path class="cls-12" d="M252.08,455.16l-.78-.29L247,453.26l4.12-2.05c1.12-.56,27.87-13.64,66.55-13.64a166.2,166.2,0,0,1,29.7,2.67l4.54.83-3.71,2.75-.73.51-.62.42-.73-.08a196.47,196.47,0,0,0-22-1.22,223.93,223.93,0,0,0-70.73,11.7l-.65.22Z"/><path class="cls-12" d="M288.93,461.75a108.07,108.07,0,0,1-37.63-6.87L247,453.27l4.14-2.06a127.2,127.2,0,0,1,22-7.77l.81-.22.72.43a64.2,64.2,0,0,0,32.77,9.29h0a67.51,67.51,0,0,0,38.18-12.37l.66-.5.82.12.22,0,4.81.67-3.89,2.91c-1,.73-24.33,17.94-59.26,17.94Z"/><path class="cls-12" d="M288.93,461.75a108.15,108.15,0,0,1-37.63-6.87L247,453.27l4.14-2.06a127.2,127.2,0,0,1,22-7.77l.81-.22.72.43a64.2,64.2,0,0,0,32.77,9.29,67.51,67.51,0,0,0,38.18-12.37l.66-.5.82.12.22,0,4.81.67-3.89,2.91C347.22,444.54,323.87,461.75,288.93,461.75Zm-28.36-9.08a101.77,101.77,0,0,0,28.36,4.08c1.77,0,3.55,0,5.32-.14a71.87,71.87,0,0,1-21.05-8C268.08,450,263.81,451.46,260.57,452.67Z"/><path class="cls-12" d="M250,481.7a4.43,4.43,0,0,1-3.13-1.29l-28.28-28.28a4.44,4.44,0,0,1,0-6.26l28.28-28.28a4.44,4.44,0,0,1,6.26,0l28.28,28.28a4.44,4.44,0,0,1,0,6.26l-28.28,28.28A4.43,4.43,0,0,1,250,481.7Z"/><path class="cls-12" d="M250,482.2a4.88,4.88,0,0,1-3.48-1.44l-28.28-28.28a4.93,4.93,0,0,1,0-7l28.28-28.28a4.93,4.93,0,0,1,7,0l28.28,28.28a4.92,4.92,0,0,1,0,7l-28.28,28.28A4.88,4.88,0,0,1,250,482.2Zm.05-5Zm-.05-.05L278.17,449,250,420.83,221.83,449Z"/><path class="cls-12" d="M250,481.2a3.89,3.89,0,0,1-2.77-1.15L219,451.77a3.92,3.92,0,0,1,0-5.54l2.78-2.79,1.38,1c6,4.33,15.71,9.5,27.48,9.5,9.09,0,18-3.15,26.41-9.36l1.39-1,2.66,2.66a3.93,3.93,0,0,1,0,5.55l-28.28,28.28A3.89,3.89,0,0,1,250,481.2Z"/><path class="cls-12" d="M250,482.2a4.88,4.88,0,0,1-3.48-1.44l-28.28-28.28a4.93,4.93,0,0,1,0-7l3.38-3.38,2.07,1.49c5.92,4.25,15.39,9.31,26.9,9.31,8.87,0,17.56-3.08,25.82-9.17l2.08-1.53,3.27,3.28a4.92,4.92,0,0,1,0,7l-28.28,28.28A4.88,4.88,0,0,1,250,482.2Zm0-5L278.17,449l-.2-.2c-8.72,6.07-17.93,9.14-27.38,9.14-12,0-21.85-4.84-28.42-9.28l-.34.34Z"/><path class="cls-12" d="M250,472.2a3.93,3.93,0,0,1-2.78-1.15L228,451.78a3.94,3.94,0,0,1,0-5.56L247.22,427a3.94,3.94,0,0,1,5.56,0l19.27,19.27a3.94,3.94,0,0,1,0,5.56l-19.27,19.27A3.93,3.93,0,0,1,250,472.2Z"/><path class="cls-12" d="M250,472.2a3.91,3.91,0,0,1-2.78-1.15L228,451.78a3.94,3.94,0,0,1,0-5.56L247.22,427a3.94,3.94,0,0,1,5.56,0l19.27,19.27a3.94,3.94,0,0,1,0,5.56l-19.27,19.27A3.91,3.91,0,0,1,250,472.2Zm0-5.44L267.76,449,250,431.24,232.24,449Z"/><path class="cls-12" d="M250,470.87a3.93,3.93,0,0,1-2.78-1.15l-17.94-17.94a3.94,3.94,0,0,1,0-5.56l17.94-17.94a3.94,3.94,0,0,1,5.56,0l17.94,17.94a3.94,3.94,0,0,1,0,5.56l-17.94,17.94A3.93,3.93,0,0,1,250,470.87Z"/><rect class="cls-12" x="236" y="454.81" width="4" height="18.38" transform="translate(-258.39 304.19) rotate(-45)"/><path class="cls-12" d="M243.19,472c-2.17-1.89-4.23-3.91-6.22-5.87l-.55-.54-.51-.52c-2-2-4-4.08-5.92-6.26l2.83-2.83c2.18,1.91,4.25,3.95,6.26,5.92l.5.49.55.56c2,2,4,4.05,5.88,6.22Z"/><rect class="cls-12" x="228.48" y="438.5" width="24.04" height="4" transform="translate(-241.04 299.08) rotate(-45)"/><path class="cls-12" d="M230.51,447.66c2.52-2.78,5.18-5.48,7.75-8.09l.64-.65.71-.71c2.6-2.55,5.28-5.2,8-7.7l2.83,2.83c-2.5,2.76-5.13,5.44-7.68,8l-.71.71-.67.66c-2.61,2.57-5.3,5.23-8.09,7.75Z"/><rect class="cls-12" x="246.48" y="457.5" width="24.04" height="4" transform="translate(-249.2 317.37) rotate(-45)"/><path class="cls-12" d="M248.51,466.66c2.52-2.78,5.18-5.48,7.75-8.09l.64-.65.71-.71c2.6-2.55,5.28-5.2,8.05-7.7l2.83,2.83c-2.5,2.76-5.13,5.44-7.68,8l-.71.71-.67.66c-2.61,2.57-5.3,5.23-8.09,7.75Z"/><path class="cls-12" d="M248,467c0-14.62-11.69-15.95-15.33-16H232l-.11-4h.75c15.19-.37,15.36-14.39,15.36-15h4c0,14.75,14.39,15,15,15v4c-14.83,0-15,15.35-15,16Z"/><rect class="cls-12" x="260" y="424.81" width="4" height="18.38" transform="translate(-230.15 312.38) rotate(-45)"/><path class="cls-12" d="M267.19,442c-2.17-1.89-4.23-3.91-6.22-5.87l-.55-.54-.51-.52c-2-2-4-4.08-5.92-6.26l2.83-2.83c2.18,1.91,4.25,3.95,6.26,5.92l.5.49.55.56c2,2,4,4.05,5.88,6.22Z"/><path class="cls-1" d="M250,37.5C132.64,37.5,37.5,132.64,37.5,250S132.64,462.5,250,462.5,462.5,367.36,462.5,250,367.36,37.5,250,37.5Zm0,400C146.45,437.5,62.5,353.55,62.5,250S146.45,62.5,250,62.5,437.5,146.45,437.5,250,353.55,437.5,250,437.5Z"/><path class="cls-2" d="M250,50C139.54,50,50,139.54,50,250s89.54,200,200,200,200-89.54,200-200S360.46,50,250,50Zm0,387.5C146.45,437.5,62.5,353.55,62.5,250S146.45,62.5,250,62.5,437.5,146.45,437.5,250,353.55,437.5,250,437.5Z"/><path class="cls-3" d="M250,55c108.69,0,197.12,84.52,199.93,189.84C447.2,136.76,358.73,50,250,50S52.8,136.76,50.07,244.84C52.88,139.52,141.31,55,250,55Zm0,390C141.31,445,52.88,360.48,50.07,255.16,52.8,363.24,141.27,450,250,450s197.2-86.76,199.93-194.84C447.12,360.48,358.69,445,250,445Z"/><path class="cls-4" d="M257.73,50.15C362.94,54.27,447,142.17,447,250S362.94,445.73,257.73,449.85C364.61,445.79,450,357.87,450,250S364.61,54.21,257.73,50.15Zm-15.46,0C135.39,54.21,50,142.13,50,250s85.39,195.79,192.27,199.85C137.06,445.73,53,357.83,53,250S137.06,54.27,242.27,50.15Z"/><path class="cls-4" d="M250,450C143.07,450,55.74,366.08,50.26,260.51c5.3,109,92.7,195.61,199.74,195.61s194.44-86.66,199.74-195.61C444.26,366.08,356.93,450,250,450Zm0-406.12c-107,0-194.44,86.66-199.74,195.61C55.74,133.92,143.07,50,250,50s194.26,83.92,199.74,189.49C444.44,130.54,357,43.88,250,43.88Z"/><path class="cls-5" d="M231.94,434.48c-1.92,1.55-5.51,3.26-12,3.42-4.85.13-11.31-.61-19.91-2.9-16.27-4.34-26.66-16-32.76-25.83a77,77,0,0,1-6.12-12.07C163.42,399,198.23,427.42,231.94,434.48Z"/><path class="cls-2" d="M250,452s-86,6-89-55c0,0,49,41,88,39Z"/><path class="cls-2" d="M161,397s46.7,39.07,85.2,39.07c.94,0,1.87,0,2.8-.07l1,16s-2.32.16-6.22.16C224,452.16,163.51,448,161,397m-1.11-2.23.11,2.28c1.1,22.25,13.05,38.26,35.52,47.57,17.94,7.43,37.93,8.54,48.26,8.54,3.89,0,6.19-.16,6.29-.16l1-.07-.06-1-1-16-.06-1-1,.05c-.91.05-1.81.07-2.75.07-37.7,0-84.09-38.45-84.56-38.84l-1.75-1.46Z"/><path class="cls-2" d="M231.94,434.48c-1.92,1.55-5.51,3.26-12,3.42-4.85.13-11.31-.61-19.91-2.9-16.27-4.34-26.66-16-32.76-25.83a77,77,0,0,1-6.12-12.07C163.42,399,198.23,427.42,231.94,434.48Z"/><path class="cls-2" d="M163.61,400.36c9.34,7.23,37.79,27.91,65.76,34.57a22.24,22.24,0,0,1-9.49,2h-1A73.89,73.89,0,0,1,200.26,434c-16.21-4.32-26.44-16.19-32.17-25.39a77.09,77.09,0,0,1-4.48-8.28m-2.49-3.26a77,77,0,0,0,6.12,12.07C173.34,419,183.73,430.66,200,435a74.6,74.6,0,0,0,18.83,2.91h1.08c6.52-.16,10.11-1.87,12-3.42-33.71-7.06-68.52-35.48-70.82-37.38Z"/><path class="cls-1" d="M250,452s-86,6-89-55c0,0,49,41,88,39Z"/><path class="cls-4" d="M231.94,434.48c-1.92,1.55-5.51,3.26-12,3.42-4.85.13-11.31-.61-19.91-2.9-16.27-4.34-26.66-16-32.76-25.83a77,77,0,0,1-6.12-12.07C163.42,399,198.23,427.42,231.94,434.48Z"/><path class="cls-6" d="M248.05,452.12c-27.27,19.29-55.75,21.76-55.75,21.76.44-.44.9-.87,1.36-1.3a128,128,0,0,0,51.55-20.18C247,452.19,248.05,452.12,248.05,452.12Z"/><path class="cls-2" d="M248.05,452.12s-36.25,2.43-55.75,21.76C192.3,473.88,220.79,471.41,248.05,452.12Z"/><path class="cls-2" d="M248.05,452.12c-27.26,19.29-55.75,21.76-55.75,21.76,19.5-19.33,55.75-21.76,55.75-21.76m3.47-1.23-3.54.23c-.37,0-36.84,2.68-56.38,22.05l-2,1.94,2.75-.24c.29,0,29.07-2.7,56.24-21.93l2.89-2.05Z"/><path class="cls-2" d="M248.05,452.12c-27.27,19.29-55.75,21.76-55.75,21.76.44-.44.9-.87,1.36-1.3a128,128,0,0,0,51.55-20.18C247,452.19,248.05,452.12,248.05,452.12Z"/><path class="cls-2" d="M248.05,452.12s-1,.07-2.84.28a128,128,0,0,1-51.55,20.18c-.46.43-.92.86-1.36,1.3,0,0,28.48-2.47,55.75-21.76Z"/><path class="cls-1" d="M248.05,452.12s-36.25,2.43-55.75,21.76C192.3,473.88,220.79,471.41,248.05,452.12Z"/><path class="cls-2" d="M248.05,452.12c-27.27,19.29-55.75,21.76-55.75,21.76.44-.44.9-.87,1.36-1.3a128,128,0,0,0,51.55-20.18C247,452.19,248.05,452.12,248.05,452.12Z"/><path class="cls-5" d="M248,453l-.72.26c-12.81-4.45-50.18-15.48-93.61-10.58l-.67-.47C206.63,432.43,248,453,248,453Z"/><path class="cls-6" d="M248,453c-53.94,20-95-10.79-95-10.79l.22,0c2.94,2.22,35.29,25.46,73.16,3.2A126.55,126.55,0,0,1,248,453Z"/><path class="cls-2" d="M248,453s-41.37-20.57-95-10.79C153,442.21,194.06,473,248,453Z"/><path class="cls-2" d="M182.35,439.57C221,439.57,248,453,248,453a105.72,105.72,0,0,1-36.94,6.75c-34.67,0-58.06-17.54-58.06-17.54a163.5,163.5,0,0,1,29.35-2.64m0-1a165.22,165.22,0,0,0-29.53,2.66l-2.25.41L152.4,443c.24.18,24.06,17.74,58.66,17.74a107.1,107.1,0,0,0,37.29-6.81l2.17-.81-2.07-1c-.28-.13-27.66-13.53-66.1-13.53Z"/><path class="cls-2" d="M248,453l-.72.26c-12.81-4.45-50.18-15.48-93.61-10.58l-.67-.47C206.63,432.43,248,453,248,453Z"/><path class="cls-2" d="M183.1,440.57a171,171,0,0,1,39.41,4.87,229.64,229.64,0,0,0-39.41-4.87m-.76-1A163.32,163.32,0,0,0,153,442.21l.67.47a198.34,198.34,0,0,1,22.22-1.23,225.73,225.73,0,0,1,71.39,11.81L248,453s-27-13.43-65.66-13.43Z"/><path class="cls-2" d="M248,453c-53.94,20-95-10.79-95-10.79l.22,0c2.94,2.22,35.29,25.46,73.16,3.2A126.55,126.55,0,0,1,248,453Z"/><path class="cls-2" d="M226.52,446.44a140.53,140.53,0,0,1,18.82,6.45,104.57,104.57,0,0,1-34.27,5.86,103.44,103.44,0,0,1-25.29-3.17,65.62,65.62,0,0,0,6.82.36,66.86,66.86,0,0,0,33.92-9.5m-73.3-4.27-.22,0s23.39,17.54,58.07,17.54A105.7,105.7,0,0,0,248,453a126.55,126.55,0,0,0-21.62-7.63,65.86,65.86,0,0,1-33.78,9.57,69.31,69.31,0,0,1-39.38-12.77Z"/><path class="cls-1" d="M248,453s-41.37-20.57-95-10.79C153,442.21,194.06,473,248,453Z"/><path class="cls-4" d="M248,453l-.72.26c-12.81-4.45-50.18-15.48-93.61-10.58l-.67-.47C206.63,432.43,248,453,248,453Z"/><path class="cls-2" d="M248,453c-53.94,20-95-10.79-95-10.79l.22,0c2.94,2.22,35.29,25.46,73.16,3.2A126.55,126.55,0,0,1,248,453Z"/><path class="cls-5" d="M268.06,434.48c1.92,1.55,5.51,3.26,12,3.42,4.85.13,11.31-.61,19.91-2.9,16.27-4.34,26.66-16,32.76-25.83a77,77,0,0,0,6.12-12.07C336.58,399,301.77,427.42,268.06,434.48Z"/><path class="cls-2" d="M250,452s86,6,89-55c0,0-49,41-88,39Z"/><path class="cls-2" d="M339,397c-2.51,51-63,55.16-82.78,55.16-3.9,0-6.22-.16-6.22-.16l1-16c.93.05,1.86.07,2.8.07C292.3,436.07,339,397,339,397m1.11-2.23-1.75,1.46c-.47.39-46.87,38.84-84.56,38.84-.94,0-1.84,0-2.75-.07l-1-.05-.06,1-1,16-.06,1,1,.07c.1,0,2.4.16,6.29.16,10.33,0,30.32-1.11,48.26-8.54C327,435.31,338.9,419.3,340,397.05l.11-2.28Z"/><path class="cls-2" d="M268.06,434.48c1.92,1.55,5.51,3.26,12,3.42,4.85.13,11.31-.61,19.91-2.9,16.27-4.34,26.66-16,32.76-25.83a77,77,0,0,0,6.12-12.07C336.58,399,301.77,427.42,268.06,434.48Z"/><path class="cls-2" d="M336.39,400.36a77.09,77.09,0,0,1-4.48,8.28c-5.73,9.2-16,21.07-32.17,25.39a73.89,73.89,0,0,1-18.57,2.88h-1.06a22.22,22.22,0,0,1-9.48-2c28-6.66,56.42-27.34,65.76-34.57m2.49-3.26c-2.3,1.9-37.11,30.32-70.82,37.38,1.92,1.55,5.51,3.26,12,3.42h1.08A74.6,74.6,0,0,0,300,435c16.27-4.34,26.66-16,32.76-25.83a77,77,0,0,0,6.12-12.07Z"/><path class="cls-1" d="M250,452s86,6,89-55c0,0-49,41-88,39Z"/><path class="cls-4" d="M268.06,434.48c1.92,1.55,5.51,3.26,12,3.42,4.85.13,11.31-.61,19.91-2.9,16.27-4.34,26.66-16,32.76-25.83a77,77,0,0,0,6.12-12.07C336.58,399,301.77,427.42,268.06,434.48Z"/><path class="cls-6" d="M252,452c27.18,19.41,55.65,22,55.65,22-.44-.44-.89-.87-1.35-1.3a128.07,128.07,0,0,1-51.46-20.41C253,452.07,252,452,252,452Z"/><path class="cls-2" d="M252,452s36.24,2.59,55.65,22C307.65,474,279.18,471.41,252,452Z"/><path class="cls-2" d="M252,452s36.24,2.59,55.65,22c0,0-28.47-2.59-55.65-22m-3.47-1.25,2.89,2.06C278.5,472.16,307.27,475,307.56,475l2.75.25-2-2C288.9,453.84,252.44,451,252.07,451l-3.54-.25Z"/><path class="cls-2" d="M252,452c27.18,19.41,55.65,22,55.65,22-.44-.44-.89-.87-1.35-1.3a128.07,128.07,0,0,1-51.46-20.41C253,452.07,252,452,252,452Z"/><path class="cls-2" d="M252,452c27.18,19.41,55.65,22,55.65,22-.44-.44-.89-.87-1.35-1.3a128.07,128.07,0,0,1-51.46-20.41C253,452.07,252,452,252,452Z"/><path class="cls-1" d="M252,452s36.24,2.59,55.65,22C307.65,474,279.18,471.41,252,452Z"/><path class="cls-2" d="M252,452c27.18,19.41,55.65,22,55.65,22-.44-.44-.89-.87-1.35-1.3a128.07,128.07,0,0,1-51.46-20.41C253,452.07,252,452,252,452Z"/><path class="cls-5" d="M252,453l.72.26c12.81-4.45,50.18-15.48,93.61-10.58l.67-.47C293.37,432.43,252,453,252,453Z"/><path class="cls-6" d="M252,453c53.94,20,95-10.79,95-10.79l-.22,0c-2.94,2.22-35.29,25.46-73.16,3.2A126.55,126.55,0,0,0,252,453Z"/><path class="cls-2" d="M252,453s41.37-20.57,95-10.79C347,442.21,305.94,473,252,453Z"/><path class="cls-2" d="M317.65,439.57A163.5,163.5,0,0,1,347,442.21s-23.39,17.54-58.06,17.54A105.72,105.72,0,0,1,252,453s27-13.43,65.65-13.43m0-1h0c-38.44,0-65.82,13.4-66.1,13.53l-2.07,1,2.17.81a107.1,107.1,0,0,0,37.29,6.81c34.6,0,58.42-17.56,58.66-17.74l1.83-1.37-2.25-.41a165.11,165.11,0,0,0-29.52-2.66Z"/><path class="cls-2" d="M252,453l.72.26c12.81-4.45,50.18-15.48,93.61-10.58l.67-.47C293.37,432.43,252,453,252,453Z"/><path class="cls-2" d="M316.89,440.57a230.21,230.21,0,0,0-39.37,4.86,170.75,170.75,0,0,1,39.37-4.86m.77-1C279,439.57,252,453,252,453l.72.26a225.73,225.73,0,0,1,71.39-11.81,198.34,198.34,0,0,1,22.22,1.23l.67-.47a163.32,163.32,0,0,0-29.34-2.64Z"/><path class="cls-2" d="M252,453c53.94,20,95-10.79,95-10.79l-.22,0c-2.94,2.22-35.29,25.46-73.16,3.2A126.55,126.55,0,0,0,252,453Z"/><path class="cls-2" d="M273.48,446.44a66.86,66.86,0,0,0,33.92,9.5,63.16,63.16,0,0,0,6.84-.37,103,103,0,0,1-25.31,3.18,104.57,104.57,0,0,1-34.27-5.86,140,140,0,0,1,18.82-6.45m73.3-4.27a69.31,69.31,0,0,1-39.38,12.77,65.86,65.86,0,0,1-33.78-9.57A126.55,126.55,0,0,0,252,453a105.7,105.7,0,0,0,36.93,6.75c34.68,0,58.07-17.54,58.07-17.54l-.22,0Z"/><path class="cls-1" d="M252,453s41.37-20.57,95-10.79C347,442.21,305.94,473,252,453Z"/><path class="cls-4" d="M252,453l.72.26c12.81-4.45,50.18-15.48,93.61-10.58l.67-.47C293.37,432.43,252,453,252,453Z"/><path class="cls-2" d="M252,453c53.94,20,95-10.79,95-10.79l-.22,0c-2.94,2.22-35.29,25.46-73.16,3.2A126.55,126.55,0,0,0,252,453Z"/><path class="cls-1" d="M250,479.7a2.37,2.37,0,0,1-1.71-.71L220,450.71a2.41,2.41,0,0,1,0-3.42L248.29,419a2.41,2.41,0,0,1,3.42,0L280,447.29a2.41,2.41,0,0,1,0,3.42L251.71,479A2.37,2.37,0,0,1,250,479.7Z"/><path class="cls-7" d="M250,418.8a1.93,1.93,0,0,1,1.36.56l28.28,28.28a1.93,1.93,0,0,1,0,2.72l-28.28,28.28a1.93,1.93,0,0,1-2.72,0l-28.28-28.28a1.93,1.93,0,0,1,0-2.72l28.28-28.28a1.93,1.93,0,0,1,1.36-.56m0-1a2.91,2.91,0,0,0-2.07.85l-28.28,28.28a2.95,2.95,0,0,0,0,4.14l28.28,28.28a2.95,2.95,0,0,0,4.14,0l28.28-28.28a2.95,2.95,0,0,0,0-4.14l-28.28-28.28a2.91,2.91,0,0,0-2.07-.85Z"/><path class="cls-8" d="M279.64,450.36l-28.28,28.28a1.93,1.93,0,0,1-2.72,0l-28.28-28.28a1.93,1.93,0,0,1,0-2.72l1.58-1.58c9.51,6.83,31.62,18.26,56.25.13l1.45,1.45A1.93,1.93,0,0,1,279.64,450.36Z"/><rect class="cls-7" x="234.44" y="433.44" width="31.11" height="31.11" rx="1.93" transform="translate(-244.27 308.29) rotate(-45)"/><rect class="cls-9" x="235.39" y="434.39" width="29.23" height="29.23" rx="1.93" transform="translate(390.71 -45.27) rotate(45)"/><path class="cls-7" d="M231.5,457.5c2.31,2,4.49,4.18,6.68,6.32s4.3,4.37,6.32,6.68c-2.31-2-4.49-4.18-6.68-6.32S233.52,459.81,231.5,457.5Z"/><path class="cls-10" d="M232,449c2.69-3,5.51-5.82,8.32-8.68S246,434.69,249,432c-2.69,3-5.51,5.82-8.32,8.68S235,446.31,232,449Z"/><path class="cls-10" d="M250,468c2.69-3,5.51-5.82,8.32-8.68S264,453.69,267,451c-2.69,3-5.51,5.82-8.32,8.68S253,465.31,250,468Z"/><path class="cls-11" d="M232,449s18-1,18,18c0,0,0-18,17-18,0,0-17,0-17-17C250,432,250,449,232,449Z"/><path class="cls-7" d="M255.5,427.5c2.31,2,4.49,4.18,6.68,6.32s4.3,4.37,6.32,6.68c-2.31-2-4.49-4.18-6.68-6.32S257.52,429.81,255.5,427.5Z"/></svg>