<svg id="Layer_2" data-name="Layer 2" xmlns="http://www.w3.org/2000/svg" viewBox="0 0 500 500"><defs><style>.cls-1{fill:#666;}.cls-2{fill:#4d4d4d;}.cls-3{fill:#ffb94a;}.cls-4{fill:#f99430;}.cls-5{fill:#d88521;}.cls-6{fill:#ffd79c;}.cls-7{fill:#231f20;}</style></defs><title>Artboard 6</title><path class="cls-1" d="M250,37.5C132.64,37.5,37.5,132.64,37.5,250S132.64,462.5,250,462.5,462.5,367.36,462.5,250,367.36,37.5,250,37.5ZM250,445C142.3,445,55,357.7,55,250S142.3,55,250,55s195,87.3,195,195S357.7,445,250,445Z"/><path class="cls-2" d="M255.36,49.32A194.24,194.24,0,0,0,127.64,97,194.18,194.18,0,0,1,249.36,54.32c107.7,0,195,87.3,195,195a194.57,194.57,0,0,1-67.27,147.36,194.65,194.65,0,0,0,73.27-152.36C450.36,136.62,363.06,49.32,255.36,49.32Z"/><path class="cls-3" d="M441,43S398.72,80.51,275,67C101,48-.61,247.82,109,371c105,118,243.73,54.14,282,10s60-76.32,49-148c-12-78-11-122,34-163,0,0-33,60-6,167,34.81,138-150.23,276.45-306,209S34.23,211.22,47,181,84.3,79.5,186,47,310,65,441,43Z"/><path class="cls-4" d="M458.1,263.16c10,72-100,208-229,187s-178-116-177-201,72-207,203-196c88.76,7.45,151.36-2.08,182.49-9h0l3-.5s-42.28,37.51-166,24C100.6,48.66.39,248.82,110,372c105,118,243.65,52.73,280,7,31-39,60.47-73.54,49.6-145.34C428,157,428.58,112.78,471.91,72.22,430.59,158.1,448.73,195.71,458.1,263.16Z"/><path class="cls-5" d="M459.11,262.16c10,72-100,208-229,187s-178-116-177-201S125,39,256,50c88.76,7.45,151.47.08,182.6-6.84h0l3-.5s-.33.29-1,.83c-27.65,10.35-83.5,23.91-173,14.17-147-16-211,117-209,203,2.07,88.84,84,187,196,187,108,0,209.28-109.73,199-185C443.69,190,431.5,131.85,472.91,71.25,431.6,157.11,449.74,194.72,459.11,262.16Z"/><path class="cls-6" d="M466.31,90.72c-27.68,71.45-10.48,105.75-1.8,169.31,10.28,75.27-104.35,214-237,192s-181-117.14-180-206,74-215,221-199c51.24,5.58,89.31,5.8,116.85,3.91-33.14,3.45-76.63,5-129.35.59-131-11-202,111-203,196s48,180,177,201,239-115,229-187c-9.37-67.45-27.51-105.06,13.81-190.94L474.51,69S470.43,76.45,466.31,90.72Z"/><path class="cls-7" d="M250,464.5A214.52,214.52,0,0,1,35.5,250C35.5,131.72,131.72,35.5,250,35.5S464.5,131.72,464.5,250A214.52,214.52,0,0,1,250,464.5ZM250,57C143.58,57,57,143.58,57,250s86.58,193,193,193,193-86.58,193-193S356.42,57,250,57Z"/><path class="cls-7" d="M250,465.5A215.55,215.55,0,0,1,166.12,51.44,215.55,215.55,0,0,1,333.88,448.56,214.11,214.11,0,0,1,250,465.5Zm0-426C133.93,39.5,39.5,133.93,39.5,250S133.93,460.5,250,460.5,460.5,366.07,460.5,250,366.07,39.5,250,39.5ZM250,447C141.37,447,53,358.63,53,250S141.37,53,250,53s197,88.37,197,197S358.63,447,250,447Zm0-389C144.13,58,58,144.13,58,250s86.13,192,192,192,192-86.13,192-192S355.87,58,250,58Z"/><path class="cls-7" d="M375.78,395.17a193,193,0,0,0,66.59-145.85c0-106.42-86.58-193-193-193a191,191,0,0,0-120.49,42.2l-2.56-3.07A197,197,0,0,1,255.37,47.32c108.62,0,197,88.37,197,197a196.18,196.18,0,0,1-74,153.92Z"/><path class="cls-7" d="M373.65,395.7l1.48-1.29a192,192,0,0,0,66.24-145.09c0-105.87-86.14-192-192-192a190,190,0,0,0-119.86,42L128,100.53,124.19,96l1.48-1.29a198,198,0,0,1,307.5,236.85A200,200,0,0,1,379,399l-1.53,1.23ZM249.37,52.32c108.62,0,197,88.37,197,197a197,197,0,0,1-10.87,64.55,193.3,193.3,0,0,0,12.87-69.55c0-106.42-86.58-193-193-193A193.06,193.06,0,0,0,223.24,54,201.78,201.78,0,0,1,249.37,52.32Z"/><path class="cls-7" d="M247.5,465.61a215.74,215.74,0,0,1-86.29-17.78C125,432.15,96,409.86,74.92,381.58c-17.42-23.4-29.39-50.87-35.58-81.65-10.92-54.22-.79-104.07,5.82-119.71l2.14-5.13C60.58,143,88.21,76.15,185.39,45.09c24.22-7.74,45.44-11.34,66.76-11.34,19,0,35.89,2.85,53.8,5.86,20.87,3.51,42.45,7.14,70.65,7.14A384.71,384.71,0,0,0,440.67,41l6.87-1.16-5.21,4.63c-1.27,1.12-31.91,27.43-116.24,27.44a477.45,477.45,0,0,1-51.31-3,210,210,0,0,0-22.7-1.25C177.59,67.74,112.37,110,81.85,178,52.5,243.37,63.48,316.83,110.49,369.67c38.84,43.64,87.27,66.71,140.07,66.71,65.87,0,119.17-33.9,138.93-56.69C427,336.38,449,304.92,438,233.3c-5.89-38.29-8.89-69.28-4.37-96,4.6-27.17,16.63-48.38,39-68.77l3.1,2.44c-.08.15-8.2,15.19-12.94,43-4.38,25.66-6.7,67.75,7.13,122.57,11.6,46-.32,94.78-33.57,137.45-21,27-49.37,49.83-81.95,66C320.66,456.74,283.69,465.61,247.5,465.61Z"/><path class="cls-7" d="M256,454.34a169.17,169.17,0,0,1-27.24-2.21c-31.08-5.05-59-14.66-82.9-28.55a188.7,188.7,0,0,1-55.62-48.7c-26.44-34.64-40.7-79.29-40.16-125.74C50.62,205,68.91,156.35,99,119c25.24-31.28,70-68.57,139.7-68.57,5.44,0,11,.23,16.55.7,21.38,1.79,42.63,2.7,63.14,2.7,54.33,0,94.15-6.24,118.16-11.53l.17-.18h.73l2.8-.47,6.89-1.17-5.23,4.64C440.67,46.28,410,72.59,325.69,72.6h0a476.8,476.8,0,0,1-51.29-2.95,209.43,209.43,0,0,0-22.67-1.25c-74,0-138.79,42-169.11,109.55-29.49,65.71-18.42,139.56,28.88,192.72,38.45,43.21,86.26,66.05,138.26,66.05,59.64,0,116-30.38,138.68-59l2.62-3.29c29.31-36.81,57-71.59,46.58-140.51-5.73-37.82-8.68-68.43-4.45-94.87C437.52,112,449,90.89,470.54,70.76l3.17,2.33c-34,70.64-27.31,108.93-18.86,157.41,1.78,10.24,3.63,20.84,5.23,32.39,4.4,31.62-13.48,74.93-46.65,113a246.19,246.19,0,0,1-69,55.36C315.61,446.58,285.88,454.34,256,454.34Z"/><path class="cls-7" d="M257,453.34a169,169,0,0,1-27.23-2.21c-31.09-5.05-59-14.66-82.91-28.55a188.66,188.66,0,0,1-55.61-48.7c-26.45-34.64-40.71-79.29-40.16-125.74C51.63,203.8,69.92,154.76,100,117c16.9-21.22,36.74-38,58.94-49.78a170.46,170.46,0,0,1,80.9-19.85c5.35,0,10.83.23,16.29.69,24.58,2.06,48.74,3.11,71.82,3.11,56.41,0,92.67-6.07,109.58-9.78l.17-.18h.73l2.8-.47,6.93-1.18-5.27,4.65s-.36.32-1.11.91l-.24.19-.29.1C419.78,53.42,382.46,63,326.84,63a553.26,553.26,0,0,1-59.45-3.36,218.66,218.66,0,0,0-23.59-1.31c-48.25,0-91,17.64-123.61,51C74.7,155.93,59.66,219.94,60.61,260.61c2,87.53,82.21,185.05,194,185.05,54.16,0,113.54-29.49,155-77,30.58-35.05,46.29-74.58,42-105.76q-1.11-8.06-2.22-15.88c-9.09-64.48-16.94-120.17,21.85-176.93l3.45,2c-34,70.62-27.31,108.91-18.86,157.38,1.79,10.24,3.63,20.84,5.24,32.39,4.39,31.62-13.49,74.93-46.66,113a245.91,245.91,0,0,1-69,55.36C316.62,445.58,286.88,453.34,257,453.34Z"/><path class="cls-7" d="M255.81,456.36A176.11,176.11,0,0,1,227.18,454c-62-10.26-109.59-36.73-141.4-78.67-34-44.85-40.67-95.08-40.27-129.32.53-45.76,19.21-95.41,50-132.82,26.09-31.73,72.95-69.55,148-69.55A233.21,233.21,0,0,1,268.72,45a779.29,779.29,0,0,0,83.5,5c11.6,0,22.7-.36,33-1.07l.35,4a642.09,642.09,0,0,1-66.23,3.31c-20.63,0-42-.92-63.5-2.72-5.43-.45-10.89-.69-16.21-.69C120.66,52.83,56,165.92,55,247.55c-1,82.25,44.58,177.72,175.32,199a166.92,166.92,0,0,0,26.59,2.15c55.49,0,111.76-28.08,154.4-77,32.43-37.25,49.94-79.35,45.71-109.87-1.6-11.47-3.44-22-5.22-32.25-8.57-49.18-15.34-88,19.21-159.83l.16-.34.28-.26,1.7-1.57,3.1,2.44c0,.07-4,7.44-8,21.28l-.06.17c-21.62,55.81-15.54,89.07-7.84,131.18,2.12,11.63,4.32,23.64,6.16,37.14,4.45,32.55-13.84,76.9-47.73,115.73a253.61,253.61,0,0,1-71.5,57.1C317.45,448.36,286.68,456.36,255.81,456.36Z"/><path class="cls-1" d="M250,37.5C132.64,37.5,37.5,132.64,37.5,250S132.64,462.5,250,462.5,462.5,367.36,462.5,250,367.36,37.5,250,37.5ZM250,445C142.3,445,55,357.7,55,250S142.3,55,250,55s195,87.3,195,195S357.7,445,250,445Z"/><path class="cls-2" d="M255.36,49.32A194.24,194.24,0,0,0,127.64,97,194.18,194.18,0,0,1,249.36,54.32c107.7,0,195,87.3,195,195a194.57,194.57,0,0,1-67.27,147.36,194.65,194.65,0,0,0,73.27-152.36C450.36,136.62,363.06,49.32,255.36,49.32Z"/><path class="cls-3" d="M441,43S398.72,80.51,275,67C101,48-.61,247.82,109,371c105,118,243.73,54.14,282,10s60-76.32,49-148c-12-78-11-122,34-163,0,0-33,60-6,167,34.81,138-150.23,276.45-306,209S34.23,211.22,47,181,84.3,79.5,186,47,310,65,441,43Z"/><path class="cls-4" d="M458.1,263.16c10,72-100,208-229,187s-178-116-177-201,72-207,203-196c88.76,7.45,151.36-2.08,182.49-9h0l3-.5s-42.28,37.51-166,24C100.6,48.66.39,248.82,110,372c105,118,243.65,52.73,280,7,31-39,60.47-73.54,49.6-145.34C428,157,428.58,112.78,471.91,72.22,430.59,158.1,448.73,195.71,458.1,263.16Z"/><path class="cls-5" d="M459.11,262.16c10,72-100,208-229,187s-178-116-177-201S125,39,256,50c88.76,7.45,151.47.08,182.6-6.84h0l3-.5s-.33.29-1,.83c-27.65,10.35-83.5,23.91-173,14.17-147-16-211,117-209,203,2.07,88.84,84,187,196,187,108,0,209.28-109.73,199-185C443.69,190,431.5,131.85,472.91,71.25,431.6,157.11,449.74,194.72,459.11,262.16Z"/><path class="cls-6" d="M466.31,90.72c-27.68,71.45-10.48,105.75-1.8,169.31,10.28,75.27-104.35,214-237,192s-181-117.14-180-206,74-215,221-199c51.24,5.58,89.31,5.8,116.85,3.91-33.14,3.45-76.63,5-129.35.59-131-11-202,111-203,196s48,180,177,201,239-115,229-187c-9.37-67.45-27.51-105.06,13.81-190.94L474.51,69S470.43,76.45,466.31,90.72Z"/></svg>